<svg width="40" height="40" viewBox="0 0 40 40" fill="none" xmlns="http://www.w3.org/2000/svg">
<path d="M3.33203 5H13.332C15.1001 5 16.7958 5.70238 18.0461 6.95262C19.2963 8.20286 19.9987 9.89856 19.9987 11.6667V35C19.9987 33.6739 19.4719 32.4021 18.5342 31.4645C17.5966 30.5268 16.3248 30 14.9987 30H3.33203V5Z" stroke="#EDA700" stroke-width="2" stroke-linecap="round" stroke-linejoin="round"/>
<path d="M36.6667 5H26.6667C24.8986 5 23.2029 5.70238 21.9526 6.95262C20.7024 8.20286 20 9.89856 20 11.6667V35C20 33.6739 20.5268 32.4021 21.4645 31.4645C22.4021 30.5268 23.6739 30 25 30H36.6667V5Z" stroke="#EDA700" stroke-width="2" stroke-linecap="round" stroke-linejoin="round"/>
</svg>
