<svg width="40" height="40" viewBox="0 0 40 40" fill="none" xmlns="http://www.w3.org/2000/svg">
<path fill-rule="evenodd" clip-rule="evenodd" d="M18.2404 2.08337H21.757C24.0354 2.08337 25.8737 2.08337 27.3187 2.27837C28.8187 2.47837 30.082 2.91171 31.0854 3.91337C31.582 4.41171 31.9387 4.97337 32.197 5.59671C33.7504 5.79004 35.0554 6.21671 36.0854 7.24671C37.0887 8.25004 37.5187 9.51337 37.722 11.0134C37.9154 12.4584 37.9154 14.2967 37.9154 16.575V23.425C37.9154 25.7034 37.9154 27.5417 37.722 28.9867C37.5187 30.4867 37.0887 31.75 36.0854 32.7534C35.0554 33.7834 33.752 34.21 32.197 34.405C31.9387 35.0267 31.582 35.5884 31.0854 36.0867C30.082 37.09 28.8187 37.52 27.3187 37.7234C25.8737 37.9167 24.0354 37.9167 21.757 37.9167H18.2404C15.962 37.9167 14.1237 37.9167 12.6787 37.7234C11.1787 37.52 9.91536 37.09 8.91203 36.0867C8.43465 35.6046 8.05691 35.0331 7.80036 34.405C6.24703 34.21 4.94203 33.7834 3.91203 32.7534C2.9087 31.75 2.4787 30.4867 2.27703 28.9867C2.08203 27.5417 2.08203 25.7034 2.08203 23.425V16.575C2.08203 14.2967 2.08203 12.4584 2.27703 11.0134C2.47703 9.51337 2.91036 8.25004 3.91203 7.24671C4.94203 6.21671 6.24536 5.79004 7.80036 5.59671C8.05672 4.968 8.43447 4.39599 8.91203 3.91337C9.91536 2.91004 11.1787 2.48004 12.6787 2.27837C14.1237 2.08337 15.962 2.08337 18.2404 2.08337ZM7.21203 8.23337C6.4837 8.41004 6.0287 8.66671 5.68036 9.01671C5.2187 9.47671 4.9187 10.1234 4.7537 11.3467C4.58536 12.6067 4.58203 14.275 4.58203 16.6667V23.3334C4.58203 25.725 4.58536 27.395 4.7537 28.6534C4.9187 29.8767 5.22036 30.5234 5.68036 30.985C6.0287 31.3334 6.4837 31.59 7.2137 31.7667C7.08203 30.4134 7.08203 28.7567 7.08203 26.7584V13.2417C7.08203 11.245 7.08203 9.58671 7.21203 8.23337ZM32.7854 31.7667C33.5137 31.59 33.9687 31.3334 34.317 30.985C34.7787 30.5234 35.0787 29.8767 35.2437 28.6517C35.412 27.395 35.4154 25.7267 35.4154 23.335V16.6684C35.4154 14.275 35.412 12.6067 35.2437 11.3467C35.0787 10.1234 34.777 9.47671 34.317 9.01504C33.9687 8.66671 33.5137 8.41004 32.7837 8.23337C32.9154 9.58671 32.9154 11.245 32.9154 13.2417V26.7584C32.9154 28.755 32.9154 30.4134 32.7854 31.7667ZM13.012 4.75504C11.7887 4.92004 11.142 5.22171 10.6804 5.68171C10.2187 6.14337 9.9187 6.79004 9.7537 8.01504C9.58536 9.27004 9.58203 10.94 9.58203 13.3334V26.6667C9.58203 29.0584 9.58536 30.7267 9.7537 31.9867C9.9187 33.21 10.2204 33.8567 10.6804 34.3184C11.142 34.78 11.7887 35.08 13.0137 35.245C14.2704 35.4134 15.9404 35.4167 18.332 35.4167H21.6654C24.057 35.4167 25.727 35.4134 26.9854 35.245C28.2087 35.08 28.8554 34.7784 29.317 34.3184C29.7787 33.8567 30.0787 33.21 30.2437 31.985C30.412 30.7267 30.4154 29.0584 30.4154 26.6667V13.3334C30.4154 10.9417 30.412 9.27171 30.2437 8.01337C30.0787 6.79004 29.777 6.14337 29.317 5.68171C28.8554 5.22004 28.2087 4.92004 26.9837 4.75504C25.727 4.58671 24.057 4.58337 21.6654 4.58337H18.332C15.9404 4.58337 14.2704 4.58671 13.012 4.75504ZM13.7487 15C13.7487 14.6685 13.8804 14.3506 14.1148 14.1162C14.3492 13.8817 14.6672 13.75 14.9987 13.75H24.9987C25.3302 13.75 25.6482 13.8817 25.8826 14.1162C26.117 14.3506 26.2487 14.6685 26.2487 15C26.2487 15.3316 26.117 15.6495 25.8826 15.8839C25.6482 16.1183 25.3302 16.25 24.9987 16.25H14.9987C14.6672 16.25 14.3492 16.1183 14.1148 15.8839C13.8804 15.6495 13.7487 15.3316 13.7487 15ZM13.7487 21.6667C13.7487 21.3352 13.8804 21.0172 14.1148 20.7828C14.3492 20.5484 14.6672 20.4167 14.9987 20.4167H24.9987C25.3302 20.4167 25.6482 20.5484 25.8826 20.7828C26.117 21.0172 26.2487 21.3352 26.2487 21.6667C26.2487 21.9982 26.117 22.3162 25.8826 22.5506C25.6482 22.785 25.3302 22.9167 24.9987 22.9167H14.9987C14.6672 22.9167 14.3492 22.785 14.1148 22.5506C13.8804 22.3162 13.7487 21.9982 13.7487 21.6667ZM13.7487 28.3334C13.7487 28.0019 13.8804 27.6839 14.1148 27.4495C14.3492 27.2151 14.6672 27.0834 14.9987 27.0834H19.9987C20.3302 27.0834 20.6482 27.2151 20.8826 27.4495C21.117 27.6839 21.2487 28.0019 21.2487 28.3334C21.2487 28.6649 21.117 28.9828 20.8826 29.2173C20.6482 29.4517 20.3302 29.5834 19.9987 29.5834H14.9987C14.6672 29.5834 14.3492 29.4517 14.1148 29.2173C13.8804 28.9828 13.7487 28.6649 13.7487 28.3334Z" fill="#EDA700"/>
</svg>
