<svg width="40" height="40" viewBox="0 0 40 40" fill="none" xmlns="http://www.w3.org/2000/svg">
<g clip-path="url(#clip0_1350_6715)">
<path d="M20.0013 12.3846C18.4955 12.3846 17.2734 13.6482 17.2734 15.2051V15.4466C17.2734 15.8954 17.101 16.3258 16.7941 16.6432C16.4871 16.9606 16.0708 17.1389 15.6367 17.1389C15.2026 17.1389 14.7863 16.9606 14.4794 16.6432C14.1724 16.3258 14 15.8954 14 15.4466V15.2051C14 13.5594 14.6323 11.9811 15.7577 10.8174C16.8832 9.65375 18.4097 9 20.0013 9H20.2545C21.4285 9.00056 22.5742 9.3728 23.5375 10.0667C24.5008 10.7605 25.2355 11.7427 25.6429 12.8812C26.0502 14.0197 26.1107 15.2598 25.8161 16.4349C25.5214 17.6099 24.8859 18.6635 23.9949 19.4539L22.3146 20.9432C22.1037 21.1324 21.9344 21.3659 21.8177 21.6282C21.701 21.8904 21.6398 22.1754 21.638 22.464V23.6667C21.638 24.1155 21.4656 24.5459 21.1587 24.8633C20.8517 25.1807 20.4354 25.359 20.0013 25.359C19.5672 25.359 19.1509 25.1807 18.844 24.8633C18.537 24.5459 18.3646 24.1155 18.3646 23.6667V22.464C18.3646 20.8913 19.028 19.3975 20.1825 18.3754L21.865 16.8862C22.2489 16.5459 22.5228 16.0922 22.6499 15.5862C22.7769 15.0801 22.7509 14.546 22.5755 14.0556C22.4001 13.5653 22.0836 13.1423 21.6686 12.8435C21.2536 12.5448 20.7601 12.3846 20.2545 12.3846H20.0013ZM20.0013 31C20.5801 31 21.1352 30.7623 21.5444 30.3391C21.9537 29.916 22.1836 29.342 22.1836 28.7436C22.1836 28.1452 21.9537 27.5712 21.5444 27.1481C21.1352 26.7249 20.5801 26.4872 20.0013 26.4872C19.4225 26.4872 18.8675 26.7249 18.4582 27.1481C18.0489 27.5712 17.819 28.1452 17.819 28.7436C17.819 29.342 18.0489 29.916 18.4582 30.3391C18.8675 30.7623 19.4225 31 20.0013 31Z" fill="#6263A5"/>
<path d="M0 20C0 14.6957 2.10714 9.60859 5.85786 5.85786C9.60859 2.10714 14.6957 0 20 0C25.3043 0 30.3914 2.10714 34.1421 5.85786C37.8929 9.60859 40 14.6957 40 20C40 25.3043 37.8929 30.3914 34.1421 34.1421C30.3914 37.8929 25.3043 40 20 40C14.6957 40 9.60859 37.8929 5.85786 34.1421C2.10714 30.3914 0 25.3043 0 20ZM20 3.42857C17.8238 3.42857 15.6689 3.8572 13.6584 4.69C11.6479 5.52279 9.82103 6.74343 8.28223 8.28223C6.74343 9.82103 5.52279 11.6479 4.69 13.6584C3.8572 15.6689 3.42857 17.8238 3.42857 20C3.42857 22.1762 3.8572 24.3311 4.69 26.3416C5.52279 28.3522 6.74343 30.179 8.28223 31.7178C9.82103 33.2566 11.6479 34.4772 13.6584 35.31C15.6689 36.1428 17.8238 36.5714 20 36.5714C24.395 36.5714 28.61 34.8255 31.7178 31.7178C34.8255 28.61 36.5714 24.395 36.5714 20C36.5714 15.605 34.8255 11.39 31.7178 8.28223C28.61 5.17449 24.395 3.42857 20 3.42857Z" fill="#6263A5"/>
</g>
<defs>
<clipPath id="clip0_1350_6715">
<rect width="40" height="40" fill="white"/>
</clipPath>
</defs>
</svg>
