<svg width="40" height="40" viewBox="0 0 40 40" fill="none" xmlns="http://www.w3.org/2000/svg">
<path d="M11.7695 14.7996C11.1065 14.7996 10.4706 15.063 10.0018 15.5318C9.53292 16.0006 9.26953 16.6365 9.26953 17.2996C9.26953 17.9626 9.53292 18.5985 10.0018 19.0673C10.4706 19.5362 11.1065 19.7996 11.7695 19.7996C12.4326 19.7996 13.0685 19.5362 13.5373 19.0673C14.0061 18.5985 14.2695 17.9626 14.2695 17.2996C14.2695 16.6365 14.0061 16.0006 13.5373 15.5318C13.0685 15.063 12.4326 14.7996 11.7695 14.7996ZM19.7695 14.7996C19.1065 14.7996 18.4706 15.063 18.0018 15.5318C17.5329 16.0006 17.2695 16.6365 17.2695 17.2996C17.2695 17.9626 17.5329 18.5985 18.0018 19.0673C18.4706 19.5362 19.1065 19.7996 19.7695 19.7996C20.4326 19.7996 21.0685 19.5362 21.5373 19.0673C22.0061 18.5985 22.2695 17.9626 22.2695 17.2996C22.2695 16.6365 22.0061 16.0006 21.5373 15.5318C21.0685 15.063 20.4326 14.7996 19.7695 14.7996ZM25.2695 17.2996C25.2695 16.6365 25.5329 16.0006 26.0018 15.5318C26.4706 15.063 27.1065 14.7996 27.7695 14.7996C28.4326 14.7996 29.0685 15.063 29.5373 15.5318C30.0061 16.0006 30.2695 16.6365 30.2695 17.2996C30.2695 17.9626 30.0061 18.5985 29.5373 19.0673C29.0685 19.5362 28.4326 19.7996 27.7695 19.7996C27.1065 19.7996 26.4706 19.5362 26.0018 19.0673C25.5329 18.5985 25.2695 17.9626 25.2695 17.2996Z" fill="#6263A5"/>
<path fill-rule="evenodd" clip-rule="evenodd" d="M28.3813 5.16942C22.9071 4.70495 17.4043 4.6779 11.9258 5.08852L11.5336 5.11886C9.01472 5.30806 6.6606 6.43736 4.94273 8.28061C3.22486 10.1239 2.27005 12.545 2.26953 15.0591V32.2841C2.26976 32.5463 2.33829 32.804 2.46843 33.032C2.59857 33.26 2.78588 33.4505 3.01207 33.585C3.23826 33.7194 3.49561 33.7932 3.75901 33.7992C4.02241 33.8051 4.28286 33.743 4.51494 33.6189L12.4602 29.3698C12.8307 29.1716 13.2447 29.068 13.6652 29.0684H31.9049C34.2052 29.0684 36.1762 27.4303 36.5887 25.1793C37.426 20.6147 37.491 15.9429 36.7838 11.356L36.5766 10.003C36.3923 8.80769 35.8096 7.70872 34.9222 6.8827C34.0347 6.05667 32.894 5.55156 31.6834 5.44852L28.3813 5.16942ZM12.1575 8.11407C17.4736 7.71419 22.8133 7.73989 28.1253 8.19092L31.4253 8.47204C32.5145 8.56507 33.4005 9.3882 33.5651 10.4641L33.7744 11.8151C34.4276 16.0691 34.3658 20.4015 33.5915 24.6353C33.5208 25.0284 33.3132 25.3842 33.0051 25.6401C32.697 25.8961 32.3082 26.0358 31.9069 26.0348H13.6652C12.7418 26.0349 11.8328 26.2628 11.0195 26.6981L5.3176 29.748V15.0591C5.31771 13.31 5.98165 11.6256 7.1765 10.343C8.37134 9.06047 10.0089 8.27446 11.7612 8.14239L12.1575 8.11407Z" fill="#6263A5"/>
</svg>
