<svg width="40" height="40" viewBox="0 0 40 40" fill="none" xmlns="http://www.w3.org/2000/svg">
<path d="M20.0006 27.1429C19.4413 27.1431 18.8942 26.9791 18.4272 26.6714C17.9602 26.3636 17.5938 25.9255 17.3734 25.4114C16.9125 25.3026 16.4587 25.1652 16.0148 25L15.9906 24.9914C14.6871 24.5022 13.484 23.7789 12.4406 22.8572C11.0425 21.6239 9.96744 20.0674 9.309 18.3233C8.65055 16.5792 8.42876 14.7005 8.66295 12.851C8.89715 11.0015 9.58022 9.23744 10.6526 7.71253C11.725 6.18761 13.1541 4.94818 14.8154 4.10231C16.4767 3.25644 18.3197 2.82981 20.1837 2.85962C22.0477 2.88942 23.8761 3.37477 25.5095 4.27333C27.1429 5.17189 28.5317 6.45638 29.5548 8.01481C30.5779 9.57324 31.2042 11.3583 31.3791 13.2143C31.4348 13.8043 30.9506 14.2857 30.3577 14.2857C29.7663 14.2857 29.2934 13.8043 29.2248 13.2157C29.036 11.5919 28.4218 10.0466 27.4443 8.73623C26.4668 7.42585 25.1606 6.39675 23.6579 5.75298C22.1552 5.10921 20.5091 4.87357 18.8862 5.0699C17.2632 5.26623 15.7208 5.88756 14.4149 6.87108C13.109 7.8546 12.086 9.16545 11.4491 10.6711C10.8123 12.1768 10.5842 13.8239 10.788 15.446C10.9918 17.068 11.6202 18.6075 12.6098 19.9089C13.5993 21.2102 14.9148 22.2272 16.4234 22.8572L16.4806 22.8814C16.7663 22.9986 17.0596 23.1019 17.3606 23.1914C17.6358 22.5209 18.1555 21.98 18.8146 21.6783C19.4736 21.3767 20.2227 21.3367 20.91 21.5667C21.5974 21.7966 22.1717 22.2791 22.5166 22.9166C22.8616 23.5541 22.9513 24.2988 22.7677 25C22.6093 25.6134 22.2515 26.1568 21.7506 26.5447C21.2497 26.9326 20.6341 27.143 20.0006 27.1429ZM10.0006 25H11.6706C10.8719 24.3775 10.1446 23.6684 9.50199 22.8857C8.45872 23.0079 7.49666 23.509 6.7985 24.2938C6.10034 25.0786 5.71471 26.0925 5.71484 27.1429V28.1643C5.71484 33.4757 11.7291 37.1429 20.0006 37.1429C28.272 37.1429 34.2863 33.2743 34.2863 28.1643V27.1429C34.2863 26.0062 33.8347 24.9161 33.031 24.1124C32.2273 23.3087 31.1372 22.8572 30.0006 22.8572H24.7934C25.0005 23.5516 25.0541 24.2828 24.9506 25H30.0006L30.2077 25.01C30.7377 25.0615 31.2295 25.3084 31.5873 25.7027C31.9452 26.097 32.1434 26.6104 32.1434 27.1429V28.1643L32.1363 28.3943C31.9363 31.9943 27.0377 35 20.0006 35C12.6991 35 7.8577 31.9843 7.8577 28.1643V27.1429L7.8677 26.9357C7.91917 26.4057 8.16611 25.9139 8.5604 25.5561C8.9547 25.1982 9.46809 25 10.0006 25ZM27.1434 14.2857C27.1436 15.5797 26.7924 16.8494 26.1271 17.9593C25.4618 19.0691 24.5076 19.9774 23.3663 20.5872C22.4455 19.7495 21.2453 19.2854 20.0006 19.2857C20.6572 19.2857 21.3073 19.1564 21.914 18.9051C22.5206 18.6538 23.0718 18.2855 23.5361 17.8213C24.0004 17.357 24.3687 16.8058 24.62 16.1991C24.8712 15.5925 25.0006 14.9423 25.0006 14.2857C25.0006 13.6291 24.8712 12.9789 24.62 12.3723C24.3687 11.7657 24.0004 11.2145 23.5361 10.7502C23.0718 10.2859 22.5206 9.9176 21.914 9.66632C21.3073 9.41505 20.6572 9.28572 20.0006 9.28572C18.6745 9.28572 17.4027 9.81251 16.465 10.7502C15.5273 11.6879 15.0006 12.9596 15.0006 14.2857C15.0006 15.6118 15.5273 16.8836 16.465 17.8213C17.4027 18.7589 18.6745 19.2857 20.0006 19.2857C18.7034 19.2857 17.5234 19.78 16.6363 20.5886C15.4955 19.9793 14.5416 19.0718 13.8763 17.9629C13.3098 17.0191 12.9691 15.9572 12.8807 14.8601C12.7924 13.7629 12.9588 12.6602 13.367 11.6379C13.7752 10.6157 14.4141 9.70166 15.2339 8.96712C16.0536 8.23257 17.032 7.69742 18.0928 7.40343C19.1535 7.10943 20.2678 7.06456 21.3487 7.27231C22.4296 7.48006 23.4479 7.93481 24.3241 8.60106C25.2003 9.26732 25.9106 10.127 26.3997 11.1131C26.8887 12.0992 27.1433 13.185 27.1434 14.2857Z" fill="#6263A5"/>
</svg>
