<svg width="40" height="40" viewBox="0 0 40 40" fill="none" xmlns="http://www.w3.org/2000/svg">
<path d="M10.7147 4.02166C10.9249 3.77087 11.0283 3.4477 11.0028 3.12151C10.9773 2.79532 10.825 2.49213 10.5784 2.27702C10.3319 2.06191 10.0109 1.95203 9.68424 1.97097C9.35761 1.98991 9.05142 2.13616 8.83141 2.37833L6.67808 4.845C5.45705 6.24427 4.76681 8.02828 4.72808 9.885L4.63308 14.4167C4.62969 14.5808 4.65866 14.744 4.71834 14.897C4.77803 15.0499 4.86725 15.1896 4.98093 15.3081C5.0946 15.4266 5.2305 15.5215 5.38086 15.5875C5.53122 15.6534 5.69309 15.6891 5.85725 15.6925C6.0214 15.6959 6.18461 15.6669 6.33757 15.6072C6.49052 15.5475 6.63022 15.4583 6.7487 15.3446C6.86717 15.231 6.96209 15.0951 7.02804 14.9447C7.094 14.7944 7.12969 14.6325 7.13308 14.4683L7.22641 9.93833C7.25315 8.66787 7.7257 7.44726 8.56141 6.49L10.7147 4.02166Z" fill="#EDA700"/>
<path fill-rule="evenodd" clip-rule="evenodd" d="M10.3933 12.8333C10.5052 11.0502 11.2925 9.3768 12.5948 8.15372C13.8972 6.93065 15.6167 6.24988 17.4033 6.24999H18.3316V4.99999C18.3316 4.55797 18.5072 4.13404 18.8198 3.82148C19.1323 3.50892 19.5563 3.33333 19.9983 3.33333C20.4403 3.33333 20.8642 3.50892 21.1768 3.82148C21.4894 4.13404 21.665 4.55797 21.665 4.99999V6.24999H22.5933C24.3799 6.24988 26.0994 6.93065 27.4018 8.15372C28.7041 9.3768 29.4914 11.0502 29.6033 12.8333L29.9716 18.7233C30.114 20.9687 30.8679 23.1323 32.1516 24.98C32.4172 25.3618 32.5795 25.8058 32.6227 26.2689C32.6659 26.7319 32.5885 27.1983 32.3981 27.6226C32.2077 28.0469 31.9107 28.4147 31.536 28.6902C31.1613 28.9658 30.7217 29.1397 30.26 29.195L24.5816 29.875V31.6667C24.5816 32.8822 24.0987 34.048 23.2392 34.9076C22.3797 35.7671 21.2139 36.25 19.9983 36.25C18.7827 36.25 17.6169 35.7671 16.7574 34.9076C15.8978 34.048 15.415 32.8822 15.415 31.6667V29.875L9.73662 29.1933C9.27511 29.1379 8.8358 28.9639 8.46136 28.6885C8.08693 28.4131 7.7901 28.0455 7.59971 27.6214C7.40932 27.1974 7.33185 26.7313 7.37482 26.2684C7.4178 25.8056 7.57975 25.3617 7.84496 24.98C9.1287 23.1323 9.88257 20.9687 10.025 18.7233L10.3933 12.8333ZM17.4033 8.75C16.2526 8.74986 15.1451 9.18828 14.3063 9.97601C13.4674 10.7637 12.9604 11.8415 12.8883 12.99L12.5216 18.88C12.3503 21.5812 11.4431 24.1841 9.89829 26.4067C9.87907 26.4343 9.86732 26.4664 9.86418 26.4999C9.86104 26.5334 9.86662 26.5671 9.88038 26.5978C9.89414 26.6285 9.9156 26.6551 9.94269 26.6751C9.96977 26.695 10.0016 26.7076 10.035 26.7117L16.2633 27.46C18.745 27.7567 21.2516 27.7567 23.7333 27.46L29.9616 26.7117C29.995 26.7076 30.0268 26.695 30.0539 26.6751C30.081 26.6551 30.1024 26.6285 30.1162 26.5978C30.13 26.5671 30.1355 26.5334 30.1324 26.4999C30.1293 26.4664 30.1175 26.4343 30.0983 26.4067C28.5541 24.1839 27.6475 21.5811 27.4766 18.88L27.1083 12.99C27.0362 11.8415 26.5291 10.7637 25.6903 9.97601C24.8515 9.18828 23.744 8.74986 22.5933 8.75H17.4033ZM19.9983 33.75C18.8483 33.75 17.915 32.8167 17.915 31.6667V30.4167H22.0816V31.6667C22.0816 32.8167 21.1483 33.75 19.9983 33.75Z" fill="#EDA700"/>
<path d="M29.4045 2.25833C29.1549 2.47629 29.002 2.78448 28.9794 3.11515C28.9569 3.44582 29.0667 3.77189 29.2845 4.02166L31.4379 6.48833C32.2733 7.44627 32.7453 8.66751 32.7712 9.93833L32.8662 14.4667C32.8731 14.7982 33.0113 15.1134 33.2506 15.343C33.4899 15.5726 33.8105 15.6977 34.142 15.6908C34.4736 15.684 34.7888 15.5457 35.0184 15.3064C35.2479 15.0672 35.3731 14.7465 35.3662 14.415L35.2712 9.885C35.2325 8.02828 34.5422 6.24427 33.3212 4.845L31.1679 2.37833C30.9499 2.12864 30.6417 1.97574 30.3111 1.95323C29.9804 1.93073 29.6543 2.04047 29.4045 2.25833Z" fill="#EDA700"/>
</svg>
