<svg width="40" height="40" viewBox="0 0 40 40" fill="none" xmlns="http://www.w3.org/2000/svg">
<path d="M20.0004 9.72498L19.6091 9.84373L3.98414 15.0787L0.431641 16.25L2.50039 16.9125V27.85C1.75414 28.2837 1.25039 29.075 1.25039 30C1.25039 30.663 1.51378 31.2989 1.98262 31.7677C2.45146 32.2366 3.08735 32.5 3.75039 32.5C4.41343 32.5 5.04932 32.2366 5.51816 31.7677C5.987 31.2989 6.25039 30.663 6.25039 30C6.25039 29.075 5.74664 28.2837 5.00039 27.85V17.775L7.50039 18.5937V25C7.50039 26.025 8.12539 26.875 8.86789 27.4625C9.61039 28.0462 10.5329 28.4587 11.6404 28.8287C13.8579 29.5662 16.7804 30 20.0004 30C23.2204 30 26.1429 29.5675 28.3604 28.8275C29.4679 28.4587 30.3904 28.0462 31.1329 27.4612C31.8754 26.875 32.5004 26.025 32.5004 25V18.5937L36.0166 17.4212L39.5691 16.25L36.0154 15.0775L20.3904 9.84373L20.0004 9.72498ZM20.0004 12.3437L31.7191 16.25L20.0004 20.1562L8.28164 16.25L20.0004 12.3437ZM10.0004 19.4537L19.6104 22.6562L20.0004 22.7737L20.3916 22.655L30.0004 19.4525V25C30.0004 25.0125 30.0054 25.1575 29.6091 25.4687C29.2141 25.7812 28.5054 26.175 27.5779 26.485C25.7254 27.1012 22.9941 27.5 20.0004 27.5C17.0066 27.5 14.2754 27.1025 12.4216 26.4837C11.4966 26.175 10.7866 25.78 10.3916 25.4687C9.99414 25.1562 10.0004 25.0125 10.0004 25V19.4537Z" fill="#EDA700"/>
</svg>
