<svg width="40" height="40" viewBox="0 0 40 40" fill="none" xmlns="http://www.w3.org/2000/svg">
<path d="M20.002 5.26843C20.515 5.26843 21.0184 5.41169 21.4541 5.6825C21.8897 5.95324 22.2406 6.34081 22.4678 6.80066L25.5234 12.9911L25.5586 13.0526C25.5971 13.1116 25.6459 13.1632 25.7031 13.205C25.7795 13.2606 25.8684 13.2977 25.9619 13.3114L32.7939 14.3104C33.302 14.3839 33.7802 14.5988 34.1729 14.9296C34.5654 15.2603 34.8579 15.6943 35.0166 16.1825C35.1753 16.6706 35.1943 17.1939 35.0713 17.6923C34.9482 18.1905 34.6879 18.6447 34.3203 19.0028L29.3789 23.8202V23.8212C29.3113 23.887 29.2597 23.9677 29.2305 24.0575C29.2012 24.1473 29.1951 24.2437 29.2109 24.3368H29.21L30.377 31.1395C30.4448 31.5343 30.4253 31.9395 30.3203 32.326C30.2153 32.7125 30.0277 33.0716 29.7695 33.3778C29.5113 33.6841 29.1886 33.9307 28.8252 34.0995C28.4621 34.2681 28.0664 34.3555 27.666 34.3553H27.665C27.2178 34.3549 26.7772 34.2451 26.3818 34.036V34.035L20.2725 30.8251V30.8241C20.1891 30.7806 20.096 30.7587 20.002 30.7587C19.9078 30.7587 19.8148 30.7814 19.7314 30.8251L13.6152 34.036C13.1612 34.275 12.6495 34.3823 12.1377 34.3456C11.6258 34.3087 11.134 34.1296 10.7188 33.828C10.3035 33.5264 9.98053 33.114 9.78711 32.6385C9.59387 32.1633 9.53728 31.6432 9.62402 31.1376L10.791 24.3348V24.3339C10.8069 24.241 10.8005 24.1452 10.7715 24.0555C10.7424 23.9658 10.6914 23.8842 10.624 23.8182V23.8192L5.68457 19.0009C5.31689 18.6427 5.05667 18.1886 4.93359 17.6903C4.81054 17.1919 4.82955 16.6687 4.98828 16.1805C5.14702 15.6924 5.43943 15.2583 5.83203 14.9276C6.22463 14.597 6.70195 14.3829 7.20996 14.3094L14.043 13.3094C14.1364 13.2958 14.2253 13.2595 14.3018 13.204C14.378 13.1486 14.4396 13.0755 14.4814 12.9911L17.5361 6.80066C17.7633 6.34066 18.1151 5.9533 18.5508 5.6825C18.9864 5.41181 19.4891 5.26851 20.002 5.26843ZM19.9971 7.46765C19.889 7.4677 19.7828 7.49613 19.6895 7.55066C19.596 7.6054 19.5188 7.68471 19.4658 7.77917L16.4219 13.9569V13.9579C16.2243 14.3575 15.9321 14.7029 15.5713 14.9647C15.2104 15.2266 14.7909 15.396 14.3496 15.4598L14.3506 15.4608L7.5166 16.4608C7.409 16.4764 7.30778 16.5216 7.22461 16.5917C7.14138 16.6619 7.07952 16.7547 7.0459 16.8583C7.0124 16.9616 7.00818 17.0721 7.03418 17.1776C7.0603 17.2833 7.11538 17.38 7.19336 17.4559L12.1396 22.2675H12.1406C12.4609 22.5795 12.7002 22.9651 12.8379 23.3905C12.9756 23.816 13.0075 24.2692 12.9307 24.7098L11.7637 31.5126C11.7453 31.6198 11.7569 31.7302 11.7979 31.8309C11.8389 31.9318 11.908 32.0189 11.9961 32.0829C12.0842 32.1468 12.1883 32.1854 12.2969 32.1932C12.4055 32.201 12.514 32.1776 12.6104 32.1268L18.7158 28.9071C19.1114 28.6984 19.5518 28.5897 19.999 28.5897C20.4462 28.5897 20.8867 28.6984 21.2822 28.9071L27.3887 32.1122C27.4849 32.1626 27.5938 32.1845 27.7021 32.1766C27.8103 32.1687 27.9142 32.131 28.002 32.0673C28.0899 32.0034 28.1582 31.9159 28.1992 31.8153C28.2402 31.7146 28.2527 31.6041 28.2344 31.4969L27.0674 24.6942C26.9921 24.2546 27.0251 23.8029 27.1631 23.3788C27.301 22.9548 27.54 22.5708 27.8594 22.2596L32.8008 17.4423C32.8787 17.3663 32.9348 17.2705 32.9609 17.1649C32.987 17.0593 32.9828 16.9481 32.9492 16.8446C32.9156 16.7412 32.8536 16.6491 32.7705 16.579C32.6874 16.5089 32.5861 16.4628 32.4785 16.4471H32.4775L25.6445 15.4471C25.2032 15.3831 24.7837 15.2132 24.4229 14.951C24.107 14.7216 23.8443 14.4276 23.6514 14.0897L23.5732 13.9423L20.5293 7.77917L20.4854 7.71082C20.4369 7.64634 20.3757 7.59168 20.3057 7.55066C20.2122 7.49597 20.1054 7.46765 19.9971 7.46765Z" fill="#6263A5" stroke="#6263A5" stroke-width="0.5"/>
</svg>
