<svg width="40" height="40" viewBox="0 0 40 40" fill="none" xmlns="http://www.w3.org/2000/svg">
<path d="M33.6319 10.4842L21.9694 5.03333C21.3359 4.73733 20.6451 4.58385 19.9458 4.58371C19.2465 4.58357 18.5556 4.73676 17.9219 5.03249L6.36943 10.4242C6.03967 10.578 5.76065 10.8228 5.56513 11.1297C5.36961 11.4366 5.26571 11.7929 5.26563 12.1568C5.26554 12.5207 5.36927 12.8771 5.56464 13.1841C5.76001 13.4911 6.03891 13.736 6.3686 13.89L18.0311 19.3408C18.6646 19.637 19.3554 19.7906 20.0547 19.7909C20.754 19.7911 21.4448 19.6381 22.0786 19.3425L33.6311 13.95C33.9609 13.7961 34.2399 13.5514 34.4354 13.2445C34.6309 12.9376 34.7348 12.5812 34.7349 12.2173C34.735 11.8534 34.6313 11.4971 34.4359 11.1901C34.2405 10.8831 33.9616 10.6382 33.6319 10.4842Z" stroke="white" stroke-width="2" stroke-linecap="round" stroke-linejoin="round"/>
<path d="M11.0217 16.065L6.36837 18.2367C6.03838 18.3904 5.75913 18.6352 5.56345 18.9422C5.36776 19.2492 5.26376 19.6057 5.26367 19.9697C5.26358 20.3338 5.36741 20.6903 5.56295 20.9974C5.75849 21.3045 6.03762 21.5494 6.36754 21.7033L18.03 27.1533C18.6636 27.4495 19.3543 27.6031 20.0536 27.6034C20.7529 27.6037 21.4438 27.4506 22.0775 27.155L33.63 21.7633C33.9598 21.6095 34.2388 21.3647 34.4343 21.0578C34.6299 20.7509 34.7338 20.3946 34.7339 20.0307C34.7339 19.6668 34.6302 19.3104 34.4348 19.0034C34.2395 18.6964 33.9606 18.4515 33.6309 18.2975L28.9767 16.1225" stroke="white" stroke-width="2" stroke-linecap="round" stroke-linejoin="round"/>
<path d="M11.0217 23.8783L6.36837 26.05C6.03838 26.2038 5.75913 26.4485 5.56345 26.7555C5.36776 27.0625 5.26376 27.419 5.26367 27.7831C5.26358 28.1471 5.36741 28.5036 5.56295 28.8107C5.75849 29.1178 6.03762 29.3627 6.36754 29.5167L18.03 34.9667C18.6636 35.2627 19.3544 35.4161 20.0537 35.4163C20.753 35.4164 21.4438 35.2632 22.0775 34.9675L33.63 29.5758C33.9598 29.422 34.2388 29.1772 34.4343 28.8703C34.6299 28.5634 34.7338 28.2071 34.7339 27.8432C34.7339 27.4793 34.6302 27.1229 34.4348 26.8159C34.2395 26.5089 33.9606 26.264 33.6309 26.11L28.9767 23.935" stroke="white" stroke-width="2" stroke-linecap="round" stroke-linejoin="round"/>
</svg>
