<svg width="40" height="40" viewBox="0 0 40 40" fill="none" xmlns="http://www.w3.org/2000/svg">
<g clip-path="url(#clip0_857_2685)">
<path d="M5.684 7.73V22.598C5.684 30.692 12.094 37.252 20 37.252C27.906 37.252 34.316 30.692 34.316 22.598V7.738L19.914 2.892L5.684 7.73ZM19.91 0L37 5.748V22.598C37 32.208 29.388 40 20 40C10.612 40 3 32.208 3 22.598V5.748L19.91 0ZM28.748 12.97C28.6175 12.8501 28.4641 12.7577 28.2971 12.6983C28.13 12.639 27.9527 12.6138 27.7758 12.6245C27.5989 12.6351 27.4259 12.6813 27.2671 12.7602C27.1084 12.8392 26.9672 12.9493 26.852 13.084L18.22 23.022L12.644 16.852C12.5261 16.7199 12.3829 16.6129 12.2228 16.5373C12.0627 16.4618 11.889 16.4192 11.7121 16.4121C11.5352 16.405 11.3587 16.4335 11.1931 16.4961C11.0274 16.5586 10.8761 16.6538 10.748 16.776C10.4867 17.0272 10.3329 17.3699 10.3191 17.7321C10.3053 18.0943 10.4325 18.4477 10.674 18.718L17.254 25.998C17.3793 26.1389 17.5334 26.2513 17.7058 26.3277C17.8782 26.404 18.065 26.4425 18.2535 26.4406C18.4421 26.4387 18.6281 26.3965 18.7989 26.3167C18.9698 26.2369 19.1215 26.1214 19.244 25.978L28.858 14.91C29.0943 14.6353 29.2149 14.2796 29.1944 13.9178C29.1739 13.556 29.0138 13.2163 28.748 12.97Z" fill="#6263A5" stroke="white" stroke-width="0.5"/>
</g>
<defs>
<clipPath id="clip0_857_2685">
<rect width="40" height="40" fill="white"/>
</clipPath>
</defs>
</svg>
