<svg width="40" height="40" viewBox="0 0 40 40" fill="none" xmlns="http://www.w3.org/2000/svg">
<path fill-rule="evenodd" clip-rule="evenodd" d="M19.8967 2.08333H20.1033C23.5517 2.08333 26.28 2.08333 28.415 2.40166C30.62 2.73166 32.37 3.42499 33.7317 4.93833C35.0767 6.43166 35.6783 8.32166 35.965 10.705C36.25 13.05 36.25 16.0583 36.25 19.9133V20.0867C36.25 23.9417 36.25 26.95 35.9667 29.295C35.6783 31.6783 35.0767 33.5683 33.7333 35.0617C32.37 36.575 30.6217 37.2683 28.415 37.5983C26.28 37.9167 23.5517 37.9167 20.105 37.9167H19.895C16.4483 37.9167 13.72 37.9167 11.585 37.5983C9.37833 37.2683 7.63 36.575 6.26833 35.0617C4.92333 33.5683 4.32167 31.6783 4.035 29.295C3.75 26.95 3.75 23.9417 3.75 20.0867V19.9133C3.75 16.0583 3.75 13.05 4.03333 10.7067C4.32167 8.31999 4.92333 6.43166 6.26667 4.93833C7.63 3.42499 9.37833 2.73166 11.585 2.40166C13.72 2.08333 16.4483 2.08333 19.8967 2.08333ZM11.955 4.87499C10.0767 5.15499 8.96 5.68333 8.125 6.60999C7.275 7.55666 6.775 8.85333 6.515 11.0067C6.25167 13.1833 6.25 16.04 6.25 20C6.25 23.96 6.25167 26.8167 6.51667 28.9933C6.77667 31.1467 7.27333 32.4433 8.125 33.39C8.96 34.3167 10.0767 34.845 11.955 35.125C13.8833 35.4133 16.425 35.4167 20 35.4167C23.575 35.4167 26.1167 35.4133 28.045 35.125C29.9233 34.845 31.04 34.3167 31.8733 33.39C32.7267 32.4433 33.2233 31.1467 33.485 28.9933C33.7483 26.8167 33.75 23.96 33.75 20C33.75 16.04 33.7483 13.1833 33.4833 11.0067C33.2233 8.85333 32.7267 7.55666 31.875 6.60999C31.04 5.68333 29.9233 5.15499 28.045 4.87499C26.1167 4.58666 23.575 4.58333 20 4.58333C16.425 4.58333 13.8833 4.58666 11.955 4.87499ZM14.86 8.74999H25.14C25.7733 8.74999 26.3233 8.74999 26.8033 8.87833C27.439 9.04855 28.0186 9.38304 28.4841 9.8482C28.9495 10.3134 29.2844 10.8928 29.455 11.5283C29.585 12.0117 29.585 12.5583 29.5833 13.195V13.4733C29.5833 14.1067 29.5833 14.6567 29.455 15.1367C29.2848 15.7723 28.9503 16.352 28.4851 16.8174C28.02 17.2828 27.4405 17.6177 26.805 17.7883C26.3217 17.9183 25.775 17.9183 25.1383 17.9167H14.8617C14.2283 17.9167 13.6783 17.9167 13.1983 17.7883C12.5627 17.6181 11.983 17.2836 11.5176 16.8185C11.0521 16.3533 10.7173 15.7739 10.5467 15.1383C10.4167 14.655 10.4183 14.1083 10.4183 13.4717V13.1933C10.4183 12.56 10.4183 12.01 10.5467 11.53C10.7169 10.8944 11.0514 10.3147 11.5165 9.84926C11.9817 9.38381 12.5611 9.04895 13.1967 8.87833C13.68 8.74833 14.2267 8.74999 14.8633 8.74999M15 11.25C14.145 11.25 13.9617 11.26 13.8433 11.2933C13.6316 11.3502 13.4385 11.4617 13.2834 11.6167C13.1284 11.7718 13.0168 11.9649 12.96 12.1767C12.9267 12.295 12.9167 12.4767 12.9167 13.3333C12.9167 14.1883 12.9267 14.3717 12.96 14.49C13.0168 14.7018 13.1284 14.8949 13.2834 15.0499C13.4385 15.205 13.6316 15.3165 13.8433 15.3733C13.9617 15.4067 14.1433 15.4167 15 15.4167H25C25.855 15.4167 26.0383 15.4067 26.1567 15.3733C26.3684 15.3165 26.5615 15.205 26.7166 15.0499C26.8716 14.8949 26.9832 14.7018 27.04 14.49C27.0733 14.3717 27.0833 14.19 27.0833 13.3333C27.0833 12.4783 27.0733 12.295 27.04 12.1767C26.9832 11.9649 26.8716 11.7718 26.7166 11.6167C26.5615 11.4617 26.3684 11.3502 26.1567 11.2933C26.0383 11.26 25.8567 11.25 25 11.25H15Z" fill="#EDA700"/>
<path d="M14.9974 21.6667C14.9974 22.1087 14.8218 22.5326 14.5092 22.8452C14.1967 23.1577 13.7728 23.3333 13.3307 23.3333C12.8887 23.3333 12.4648 23.1577 12.1522 22.8452C11.8397 22.5326 11.6641 22.1087 11.6641 21.6667C11.6641 21.2246 11.8397 20.8007 12.1522 20.4882C12.4648 20.1756 12.8887 20 13.3307 20C13.7728 20 14.1967 20.1756 14.5092 20.4882C14.8218 20.8007 14.9974 21.2246 14.9974 21.6667ZM14.9974 28.3333C14.9974 28.7754 14.8218 29.1993 14.5092 29.5118C14.1967 29.8244 13.7728 30 13.3307 30C12.8887 30 12.4648 29.8244 12.1522 29.5118C11.8397 29.1993 11.6641 28.7754 11.6641 28.3333C11.6641 27.8913 11.8397 27.4674 12.1522 27.1548C12.4648 26.8423 12.8887 26.6667 13.3307 26.6667C13.7728 26.6667 14.1967 26.8423 14.5092 27.1548C14.8218 27.4674 14.9974 27.8913 14.9974 28.3333ZM21.6641 21.6667C21.6641 22.1087 21.4885 22.5326 21.1759 22.8452C20.8633 23.1577 20.4394 23.3333 19.9974 23.3333C19.5554 23.3333 19.1314 23.1577 18.8189 22.8452C18.5063 22.5326 18.3307 22.1087 18.3307 21.6667C18.3307 21.2246 18.5063 20.8007 18.8189 20.4882C19.1314 20.1756 19.5554 20 19.9974 20C20.4394 20 20.8633 20.1756 21.1759 20.4882C21.4885 20.8007 21.6641 21.2246 21.6641 21.6667ZM21.6641 28.3333C21.6641 28.7754 21.4885 29.1993 21.1759 29.5118C20.8633 29.8244 20.4394 30 19.9974 30C19.5554 30 19.1314 29.8244 18.8189 29.5118C18.5063 29.1993 18.3307 28.7754 18.3307 28.3333C18.3307 27.8913 18.5063 27.4674 18.8189 27.1548C19.1314 26.8423 19.5554 26.6667 19.9974 26.6667C20.4394 26.6667 20.8633 26.8423 21.1759 27.1548C21.4885 27.4674 21.6641 27.8913 21.6641 28.3333ZM28.3307 21.6667C28.3307 22.1087 28.1551 22.5326 27.8426 22.8452C27.53 23.1577 27.1061 23.3333 26.6641 23.3333C26.222 23.3333 25.7981 23.1577 25.4856 22.8452C25.173 22.5326 24.9974 22.1087 24.9974 21.6667C24.9974 21.2246 25.173 20.8007 25.4856 20.4882C25.7981 20.1756 26.222 20 26.6641 20C27.1061 20 27.53 20.1756 27.8426 20.4882C28.1551 20.8007 28.3307 21.2246 28.3307 21.6667ZM28.3307 28.3333C28.3307 28.7754 28.1551 29.1993 27.8426 29.5118C27.53 29.8244 27.1061 30 26.6641 30C26.222 30 25.7981 29.8244 25.4856 29.5118C25.173 29.1993 24.9974 28.7754 24.9974 28.3333C24.9974 27.8913 25.173 27.4674 25.4856 27.1548C25.7981 26.8423 26.222 26.6667 26.6641 26.6667C27.1061 26.6667 27.53 26.8423 27.8426 27.1548C28.1551 27.4674 28.3307 27.8913 28.3307 28.3333Z" fill="#EDA700"/>
</svg>
