<svg width="40" height="40" viewBox="0 0 40 40" fill="none" xmlns="http://www.w3.org/2000/svg">
<path d="M21.2492 4.58333V7.49999H24.5409C25.1259 7.49999 25.6975 7.67666 26.1809 8.00499L29.0092 9.92833C29.0792 9.97499 29.157 9.99888 29.2425 9.99999H36.0792C36.4107 9.99999 36.7287 10.1317 36.9631 10.3661C37.1975 10.6005 37.3292 10.9185 37.3292 11.25C37.3292 11.5815 37.1975 11.8995 36.9631 12.1339C36.7287 12.3683 36.4107 12.5 36.0792 12.5H33.4492L39.0592 25.3C39.1714 25.5559 39.1947 25.8421 39.1252 26.1128C39.0557 26.3835 38.8975 26.6231 38.6759 26.7933C38.5092 26.9167 38.337 27.0311 38.1592 27.1367C37.7373 27.3904 37.2972 27.6127 36.8425 27.8017C35.335 28.4321 33.7166 28.7545 32.0825 28.75C30.449 28.7571 28.8307 28.4351 27.3242 27.8033C26.8695 27.6138 26.4294 27.391 26.0075 27.1367C25.8303 27.035 25.6594 26.9226 25.4959 26.8L25.4875 26.7933C25.2659 26.6231 25.1077 26.3835 25.0382 26.1128C24.9687 25.8421 24.992 25.5559 25.1042 25.3L30.7175 12.5H29.2409C28.6559 12.5 28.0842 12.3233 27.6009 11.995L24.7725 10.0717C24.7037 10.025 24.6224 10.0001 24.5392 9.99999H21.2492V34.1667H28.7275C29.0591 34.1667 29.377 34.2984 29.6114 34.5328C29.8458 34.7672 29.9775 35.0851 29.9775 35.4167C29.9775 35.7482 29.8458 36.0661 29.6114 36.3005C29.377 36.535 29.0591 36.6667 28.7275 36.6667H11.2709C10.9394 36.6667 10.6214 36.535 10.387 36.3005C10.1526 36.0661 10.0209 35.7482 10.0209 35.4167C10.0209 35.0851 10.1526 34.7672 10.387 34.5328C10.6214 34.2984 10.9394 34.1667 11.2709 34.1667H18.7492V9.99999H15.4575C15.3744 10.0001 15.2931 10.025 15.2242 10.0717L12.3975 11.995C11.9142 12.3233 11.3425 12.5 10.7575 12.5H9.28088L14.8942 25.3C15.0029 25.5487 15.0276 25.8259 14.9648 26.0899C14.9019 26.3539 14.7549 26.5903 14.5459 26.7633C14.4125 26.8717 14.2792 26.9733 14.0292 27.135C13.608 27.4084 13.1667 27.6496 12.7092 27.8567C11.2043 28.5417 9.56936 28.8942 7.91588 28.89C6.26239 28.8942 4.62745 28.5417 3.12254 27.8567C2.66505 27.6496 2.2238 27.4084 1.80254 27.135C1.62514 27.0204 1.45328 26.8975 1.28754 26.7667C1.07974 26.592 0.933549 26.3551 0.870534 26.0911C0.807519 25.827 0.83101 25.5497 0.937544 25.3L6.54921 12.5H3.92088C3.58936 12.5 3.27141 12.3683 3.03699 12.1339C2.80257 11.8995 2.67088 11.5815 2.67088 11.25C2.67088 10.9185 2.80257 10.6005 3.03699 10.3661C3.27141 10.1317 3.58936 9.99999 3.92088 9.99999H10.7575C10.842 9.99999 10.9203 9.97611 10.9925 9.92833L13.8175 8.00499C14.3009 7.67499 14.8742 7.49999 15.4592 7.49999H18.7492V4.58333C18.7492 4.25181 18.8809 3.93387 19.1153 3.69944C19.3497 3.46502 19.6677 3.33333 19.9992 3.33333C20.3307 3.33333 20.6487 3.46502 20.8831 3.69944C21.1175 3.93387 21.2492 4.25181 21.2492 4.58333ZM3.65421 25.33C4.9656 26.0292 6.42973 26.3928 7.91588 26.3883C9.40203 26.3928 10.8662 26.0292 12.1775 25.33L7.91588 15.6133L3.65421 25.33ZM27.8375 25.29C27.9742 25.3567 28.127 25.4267 28.2959 25.5C29.1792 25.8717 30.4709 26.25 32.0825 26.25C33.5518 26.2539 35.0029 25.9258 36.3275 25.29L32.0825 15.6117L27.8375 25.29Z" fill="#EDA700"/>
</svg>
