<svg width="32" height="32" viewBox="0 0 32 32" fill="none" xmlns="http://www.w3.org/2000/svg">
<path d="M27.0537 4.58356L26.6413 4.99463L24.2944 7.339C26.4563 9.57933 27.5264 12.3348 27.5264 15.6246C27.5264 18.9337 26.4152 21.7303 24.171 23.9706C21.9269 26.2315 19.1676 27.3619 15.852 27.3619C12.5365 27.3619 9.75665 26.2315 7.53302 23.9706C5.28884 21.7097 4.17766 18.935 4.17766 15.6246C4.17766 12.2937 5.28884 9.47656 7.53302 7.21568L7.55356 7.19513C6.62737 6.29078 5.70118 5.38643 4.7737 4.46024L4.75316 4.48079C1.72666 7.52399 0.203125 11.2249 0.203125 15.6028C0.203125 19.9408 1.70611 23.6417 4.75316 26.7055C7.78094 29.7474 11.487 31.2902 15.8726 31.2902C20.2582 31.2902 23.9642 29.768 27.0126 26.7042C30.0596 23.6623 31.5831 19.9614 31.5831 15.6028C31.542 11.2866 30.0391 7.6062 27.0537 4.58356Z" fill="white"/>
<path d="M15.8544 31.5163C11.4277 31.5163 7.63819 29.9529 4.59114 26.8699C1.54409 23.7869 0 20.0025 0 15.6246C0 11.2043 1.54409 7.42119 4.59114 4.35872L4.75557 4.21356L4.90072 4.33688C5.82691 5.24252 6.75312 6.16743 7.67931 7.07178L7.82445 7.21565L7.65874 7.38008C5.47622 9.59985 4.36506 12.3759 4.36506 15.6451C4.36506 18.8926 5.47622 21.648 7.65874 23.8472C9.84255 26.0478 12.6006 27.1782 15.8339 27.1782C19.0878 27.1782 21.8252 26.0683 24.0078 23.8472C26.1916 21.648 27.3027 18.872 27.3027 15.6451C27.3027 12.4375 26.2327 9.70262 24.1118 7.5034L23.9667 7.35952L27.0355 4.29578L27.1794 4.43965C30.2059 7.48285 31.7294 11.266 31.7294 15.6246C31.7294 20.0025 30.1648 23.7856 27.1177 26.8699C24.0501 29.9529 20.2606 31.5163 15.8544 31.5163ZM4.75557 4.76851C1.8524 7.72949 0.390517 11.3893 0.390517 15.6233C0.390517 19.901 1.8935 23.58 4.88018 26.5809C7.84502 29.5829 11.5511 31.1052 15.8544 31.1052C20.1578 31.1052 23.8639 29.5829 26.8493 26.5821C29.8359 23.5801 31.3595 19.8997 31.3595 15.6246C31.3595 11.4304 29.9182 7.8117 27.0766 4.87256L24.6051 7.33897C26.7054 9.5793 27.7562 12.3746 27.7562 15.6246C27.7562 18.9748 26.6026 21.833 24.3379 24.1157C22.0731 26.3972 19.2316 27.5687 15.875 27.5687C12.5184 27.5687 9.65628 26.4177 7.4121 24.1144C5.14737 21.833 3.99381 18.9761 3.99381 15.6233C3.99381 12.3142 5.10626 9.47653 7.26823 7.21565C6.4156 6.41556 5.57791 5.59971 4.75557 4.76851Z" fill="white"/>
<path d="M17.3761 0.164612H14.3496V11.5127H17.3761V0.164612Z" fill="white"/>
<path d="M17.5203 11.6564H14.2266V0H17.5203V11.6564ZM14.4938 11.3481H17.2531V0.308304H14.4938V11.3481Z" fill="white"/>
</svg>
