<svg width="40" height="40" viewBox="0 0 40 40" fill="none" xmlns="http://www.w3.org/2000/svg">
<path d="M26.6654 35V31.6667C26.6654 29.8986 25.963 28.2029 24.7127 26.9526C23.4625 25.7024 21.7668 25 19.9987 25H9.9987C8.23059 25 6.5349 25.7024 5.28465 26.9526C4.03441 28.2029 3.33203 29.8986 3.33203 31.6667V35M26.6654 5.21333C28.095 5.58395 29.361 6.41877 30.2648 7.58677C31.1686 8.75477 31.659 10.1898 31.659 11.6667C31.659 13.1435 31.1686 14.5786 30.2648 15.7466C29.361 16.9146 28.095 17.7494 26.6654 18.12M36.6654 35V31.6667C36.6643 30.1895 36.1726 28.7546 35.2676 27.5872C34.3627 26.4198 33.0956 25.5859 31.6654 25.2167" stroke="#6263A5" stroke-width="2.5" stroke-linecap="round" stroke-linejoin="round"/>
<path d="M14.9987 18.3333C18.6806 18.3333 21.6654 15.3486 21.6654 11.6667C21.6654 7.98477 18.6806 5 14.9987 5C11.3168 5 8.33203 7.98477 8.33203 11.6667C8.33203 15.3486 11.3168 18.3333 14.9987 18.3333Z" stroke="#6263A5" stroke-width="2.5" stroke-linecap="round" stroke-linejoin="round"/>
</svg>
