<svg width="36" height="36" viewBox="0 0 36 36" fill="none" xmlns="http://www.w3.org/2000/svg">
<path d="M9.33333 7.66679H25.5833C29.095 7.66679 30.85 7.66679 32.1117 8.51012C32.6571 8.87469 33.1254 9.34304 33.49 9.88846C34.3333 11.1501 34.3333 12.9051 34.3333 16.4168C34.3333 22.2685 34.3333 25.1951 32.9283 27.2968C32.625 27.7523 32.2794 28.1735 31.8917 28.5601M3.44167 28.5601C1 26.1168 1 22.1901 1 14.3335V9.24012C1 6.21346 1 4.70012 1.63333 3.56346C2.08523 2.75358 2.75346 2.08535 3.56333 1.63346C4.7 1.00012 6.21333 1.00012 9.24 1.00012C11.18 1.00012 12.15 1.00012 13 1.31846C14.9383 2.04512 15.7383 3.80679 16.6133 5.55512L17.6667 7.66679" stroke="#EDA700" stroke-width="2" stroke-linecap="round"/>
<path d="M28.0833 33.0835L24.3333 29.3335V24.3335M7.25 33.0835L11 29.3335V24.3335M17.6667 33.0835V24.3335M28.0833 31.8335C27.7518 31.8335 27.4339 31.9652 27.1994 32.1996C26.965 32.434 26.8333 32.752 26.8333 33.0835C26.8333 33.415 26.965 33.733 27.1994 33.9674C27.4339 34.2018 27.7518 34.3335 28.0833 34.3335C28.4149 34.3335 28.7328 34.2018 28.9672 33.9674C29.2016 33.733 29.3333 33.415 29.3333 33.0835C29.3333 32.752 29.2016 32.434 28.9672 32.1996C28.7328 31.9652 28.4149 31.8335 28.0833 31.8335ZM7.25 31.8335C7.58152 31.8335 7.89946 31.9652 8.13388 32.1996C8.3683 32.434 8.5 32.752 8.5 33.0835C8.5 33.415 8.3683 33.733 8.13388 33.9674C7.89946 34.2018 7.58152 34.3335 7.25 34.3335C6.91848 34.3335 6.60054 34.2018 6.36612 33.9674C6.1317 33.733 6 33.415 6 33.0835C6 32.752 6.1317 32.434 6.36612 32.1996C6.60054 31.9652 6.91848 31.8335 7.25 31.8335ZM17.6667 31.8335C17.3351 31.8335 17.0172 31.9652 16.7828 32.1996C16.5484 32.434 16.4167 32.752 16.4167 33.0835C16.4167 33.415 16.5484 33.733 16.7828 33.9674C17.0172 34.2018 17.3351 34.3335 17.6667 34.3335C17.9982 34.3335 18.3161 34.2018 18.5506 33.9674C18.785 33.733 18.9167 33.415 18.9167 33.0835C18.9167 32.752 18.785 32.434 18.5506 32.1996C18.3161 31.9652 17.9982 31.8335 17.6667 31.8335Z" stroke="#EDA700" stroke-width="2" stroke-linecap="round" stroke-linejoin="round"/>
</svg>
