<svg width="40" height="40" viewBox="0 0 40 40" fill="none" xmlns="http://www.w3.org/2000/svg">
<path fill-rule="evenodd" clip-rule="evenodd" d="M18.2365 2.08337H21.7531C24.0315 2.08337 25.8698 2.08337 27.3148 2.27837C28.8148 2.47837 30.0781 2.91171 31.0815 3.91337C31.5781 4.41171 31.9348 4.97337 32.1931 5.59671C33.7465 5.79004 35.0515 6.21671 36.0815 7.24671C37.0848 8.25004 37.5148 9.51337 37.7181 11.0134C37.9115 12.4584 37.9115 14.2967 37.9115 16.575V23.425C37.9115 25.7034 37.9115 27.5417 37.7181 28.9867C37.5148 30.4867 37.0848 31.75 36.0815 32.7534C35.0515 33.7834 33.7481 34.21 32.1931 34.405C31.9348 35.0267 31.5781 35.5884 31.0815 36.0867C30.0781 37.09 28.8148 37.52 27.3148 37.7234C25.8698 37.9167 24.0315 37.9167 21.7531 37.9167H18.2365C15.9581 37.9167 14.1198 37.9167 12.6748 37.7234C11.1748 37.52 9.91146 37.09 8.90812 36.0867C8.43075 35.6046 8.053 35.0331 7.79646 34.405C6.24313 34.21 4.93812 33.7834 3.90813 32.7534C2.90479 31.75 2.47479 30.4867 2.27312 28.9867C2.07812 27.5417 2.07812 25.7034 2.07812 23.425V16.575C2.07812 14.2967 2.07812 12.4584 2.27312 11.0134C2.47312 9.51337 2.90646 8.25004 3.90813 7.24671C4.93812 6.21671 6.24146 5.79004 7.79646 5.59671C8.05281 4.968 8.43056 4.39599 8.90812 3.91337C9.91146 2.91004 11.1748 2.48004 12.6748 2.27837C14.1198 2.08337 15.9581 2.08337 18.2365 2.08337ZM7.20813 8.23337C6.47979 8.41004 6.02479 8.66671 5.67646 9.01671C5.21479 9.47671 4.91479 10.1234 4.74979 11.3467C4.58146 12.6067 4.57812 14.275 4.57812 16.6667V23.3334C4.57812 25.725 4.58146 27.395 4.74979 28.6534C4.91479 29.8767 5.21646 30.5234 5.67646 30.985C6.02479 31.3334 6.47979 31.59 7.20979 31.7667C7.07812 30.4134 7.07812 28.7567 7.07812 26.7584V13.2417C7.07812 11.245 7.07812 9.58671 7.20813 8.23337ZM32.7815 31.7667C33.5098 31.59 33.9648 31.3334 34.3131 30.985C34.7748 30.5234 35.0748 29.8767 35.2398 28.6517C35.4081 27.395 35.4115 25.7267 35.4115 23.335V16.6684C35.4115 14.275 35.4081 12.6067 35.2398 11.3467C35.0748 10.1234 34.7731 9.47671 34.3131 9.01504C33.9648 8.66671 33.5098 8.41004 32.7798 8.23337C32.9115 9.58671 32.9115 11.245 32.9115 13.2417V26.7584C32.9115 28.755 32.9115 30.4134 32.7815 31.7667ZM13.0081 4.75504C11.7848 4.92004 11.1381 5.22171 10.6765 5.68171C10.2148 6.14337 9.91479 6.79004 9.74979 8.01504C9.58146 9.27004 9.57812 10.94 9.57812 13.3334V26.6667C9.57812 29.0584 9.58146 30.7267 9.74979 31.9867C9.91479 33.21 10.2165 33.8567 10.6765 34.3184C11.1381 34.78 11.7848 35.08 13.0098 35.245C14.2665 35.4134 15.9365 35.4167 18.3281 35.4167H21.6615C24.0531 35.4167 25.7231 35.4134 26.9815 35.245C28.2048 35.08 28.8515 34.7784 29.3131 34.3184C29.7748 33.8567 30.0748 33.21 30.2398 31.985C30.4081 30.7267 30.4115 29.0584 30.4115 26.6667V13.3334C30.4115 10.9417 30.4081 9.27171 30.2398 8.01337C30.0748 6.79004 29.7731 6.14337 29.3131 5.68171C28.8515 5.22004 28.2048 4.92004 26.9798 4.75504C25.7231 4.58671 24.0531 4.58337 21.6615 4.58337H18.3281C15.9365 4.58337 14.2665 4.58671 13.0081 4.75504ZM13.7448 15C13.7448 14.6685 13.8765 14.3506 14.1109 14.1162C14.3453 13.8817 14.6633 13.75 14.9948 13.75H24.9948C25.3263 13.75 25.6443 13.8817 25.8787 14.1162C26.1131 14.3506 26.2448 14.6685 26.2448 15C26.2448 15.3316 26.1131 15.6495 25.8787 15.8839C25.6443 16.1183 25.3263 16.25 24.9948 16.25H14.9948C14.6633 16.25 14.3453 16.1183 14.1109 15.8839C13.8765 15.6495 13.7448 15.3316 13.7448 15ZM13.7448 21.6667C13.7448 21.3352 13.8765 21.0172 14.1109 20.7828C14.3453 20.5484 14.6633 20.4167 14.9948 20.4167H24.9948C25.3263 20.4167 25.6443 20.5484 25.8787 20.7828C26.1131 21.0172 26.2448 21.3352 26.2448 21.6667C26.2448 21.9982 26.1131 22.3162 25.8787 22.5506C25.6443 22.785 25.3263 22.9167 24.9948 22.9167H14.9948C14.6633 22.9167 14.3453 22.785 14.1109 22.5506C13.8765 22.3162 13.7448 21.9982 13.7448 21.6667ZM13.7448 28.3334C13.7448 28.0019 13.8765 27.6839 14.1109 27.4495C14.3453 27.2151 14.6633 27.0834 14.9948 27.0834H19.9948C20.3263 27.0834 20.6443 27.2151 20.8787 27.4495C21.1131 27.6839 21.2448 28.0019 21.2448 28.3334C21.2448 28.6649 21.1131 28.9828 20.8787 29.2173C20.6443 29.4517 20.3263 29.5834 19.9948 29.5834H14.9948C14.6633 29.5834 14.3453 29.4517 14.1109 29.2173C13.8765 28.9828 13.7448 28.6649 13.7448 28.3334Z" fill="#EDA700"/>
</svg>
