<svg width="32" height="32" viewBox="0 0 32 32" fill="none" xmlns="http://www.w3.org/2000/svg">
<g clip-path="url(#clip0_965_4600)">
<path d="M0 15.36C0 8.1192 0 4.49884 2.24942 2.24942C4.49884 0 8.1192 0 15.36 0H16.64C23.8808 0 27.5011 0 29.7506 2.24942C32 4.49884 32 8.1192 32 15.36V16.64C32 23.8808 32 27.5011 29.7506 29.7506C27.5011 32 23.8808 32 16.64 32H15.36C8.1192 32 4.49884 32 2.24942 29.7506C0 27.5011 0 23.8808 0 16.64V15.36Z" fill="#0077FF"/>
<path d="M17.025 23.0534C9.73171 23.0534 5.57177 18.0534 5.39844 9.7334H9.05177C9.17177 15.8401 11.865 18.4267 13.9984 18.9601V9.7334H17.4385V15.0001C19.5452 14.7734 21.7582 12.3734 22.5049 9.7334H25.945C25.3716 12.9867 22.9716 15.3867 21.265 16.3734C22.9716 17.1734 25.7051 19.2667 26.7451 23.0534H22.9583C22.145 20.5201 20.1185 18.5601 17.4385 18.2934V23.0534H17.025Z" fill="white"/>
</g>
<defs>
<clipPath id="clip0_965_4600">
<rect width="32" height="32" fill="white"/>
</clipPath>
</defs>
</svg>
