<svg width="40" height="40" viewBox="0 0 40 40" fill="none" xmlns="http://www.w3.org/2000/svg">
<g clip-path="url(#clip0_1376_7968)">
<path d="M20 25C22.7614 25 25 22.7614 25 20C25 17.2386 22.7614 15 20 15C17.2386 15 15 17.2386 15 20C15 22.7614 17.2386 25 20 25Z" stroke="#EDA700" stroke-width="2.5" stroke-linecap="round" stroke-linejoin="round"/>
<path d="M32.3346 25C32.1128 25.5027 32.0466 26.0603 32.1446 26.601C32.2427 27.1416 32.5004 27.6405 32.8846 28.0333L32.9846 28.1333C33.2946 28.4429 33.5404 28.8105 33.7082 29.2152C33.8759 29.6199 33.9623 30.0536 33.9623 30.4917C33.9623 30.9297 33.8759 31.3635 33.7082 31.7681C33.5404 32.1728 33.2946 32.5404 32.9846 32.85C32.6751 33.1599 32.3074 33.4058 31.9028 33.5735C31.4981 33.7413 31.0644 33.8276 30.6263 33.8276C30.1883 33.8276 29.7545 33.7413 29.3498 33.5735C28.9452 33.4058 28.5775 33.1599 28.268 32.85L28.168 32.75C27.7752 32.3658 27.2763 32.108 26.7356 32.01C26.195 31.912 25.6373 31.9781 25.1346 32.2C24.6417 32.4113 24.2213 32.7621 23.9251 33.2092C23.629 33.6564 23.4701 34.1803 23.468 34.7167V35C23.468 35.884 23.1168 36.7319 22.4917 37.357C21.8665 37.9821 21.0187 38.3333 20.1346 38.3333C19.2506 38.3333 18.4027 37.9821 17.7776 37.357C17.1525 36.7319 16.8013 35.884 16.8013 35V34.85C16.7884 34.2983 16.6098 33.7633 16.2888 33.3145C15.9678 32.8657 15.5192 32.5238 15.0013 32.3333C14.4986 32.1115 13.941 32.0453 13.4003 32.1433C12.8597 32.2413 12.3608 32.4991 11.968 32.8833L11.868 32.9833C11.5584 33.2932 11.1908 33.5391 10.7861 33.7069C10.3814 33.8746 9.94769 33.9609 9.50964 33.9609C9.07158 33.9609 8.63783 33.8746 8.23317 33.7069C7.82851 33.5391 7.46088 33.2932 7.1513 32.9833C6.84138 32.6737 6.59552 32.3061 6.42777 31.9015C6.26002 31.4968 6.17368 31.063 6.17368 30.625C6.17368 30.1869 6.26002 29.7532 6.42777 29.3485C6.59552 28.9439 6.84138 28.5762 7.1513 28.2667L7.2513 28.1667C7.63553 27.7739 7.89328 27.275 7.99131 26.7343C8.08934 26.1936 8.02316 25.636 7.8013 25.1333C7.59003 24.6404 7.23923 24.22 6.79208 23.9238C6.34493 23.6277 5.82095 23.4688 5.28464 23.4667H5.0013C4.11725 23.4667 3.2694 23.1155 2.64428 22.4903C2.01916 21.8652 1.66797 21.0174 1.66797 20.1333C1.66797 19.2493 2.01916 18.4014 2.64428 17.7763C3.2694 17.1512 4.11725 16.8 5.0013 16.8H5.1513C5.70296 16.7871 6.23798 16.6085 6.6868 16.2875C7.13562 15.9665 7.4775 15.5179 7.66797 15C7.88983 14.4973 7.95601 13.9397 7.85798 13.399C7.75995 12.8584 7.5022 12.3595 7.11797 11.9667L7.01797 11.8667C6.70805 11.5571 6.46218 11.1895 6.29444 10.7848C6.12669 10.3801 6.04035 9.94638 6.04035 9.50832C6.04035 9.07027 6.12669 8.63652 6.29444 8.23186C6.46218 7.8272 6.70805 7.45957 7.01797 7.14999C7.32755 6.84007 7.69517 6.59421 8.09983 6.42646C8.5045 6.25871 8.93825 6.17237 9.3763 6.17237C9.81435 6.17237 10.2481 6.25871 10.6528 6.42646C11.0574 6.59421 11.4251 6.84007 11.7346 7.14999L11.8346 7.24999C12.2274 7.63422 12.7263 7.89197 13.267 7.99C13.8076 8.08803 14.3653 8.02185 14.868 7.79999H15.0013C15.4943 7.58872 15.9147 7.23792 16.2108 6.79077C16.5069 6.34362 16.6658 5.81963 16.668 5.28332V4.99999C16.668 4.11593 17.0192 3.26809 17.6443 2.64297C18.2694 2.01785 19.1172 1.66666 20.0013 1.66666C20.8854 1.66666 21.7332 2.01785 22.3583 2.64297C22.9834 3.26809 23.3346 4.11593 23.3346 4.99999V5.14999C23.3368 5.6863 23.4957 6.21028 23.7918 6.65743C24.0879 7.10458 24.5084 7.45539 25.0013 7.66666C25.504 7.88852 26.0616 7.9547 26.6023 7.85666C27.1429 7.75863 27.6418 7.50088 28.0346 7.11666L28.1346 7.01666C28.4442 6.70674 28.8118 6.46087 29.2165 6.29312C29.6212 6.12538 30.0549 6.03903 30.493 6.03903C30.931 6.03903 31.3648 6.12538 31.7694 6.29312C32.1741 6.46087 32.5417 6.70674 32.8513 7.01666C33.1612 7.32623 33.4071 7.69386 33.5748 8.09852C33.7426 8.50318 33.8289 8.93694 33.8289 9.37499C33.8289 9.81304 33.7426 10.2468 33.5748 10.6515C33.4071 11.0561 33.1612 11.4237 32.8513 11.7333L32.7513 11.8333C32.3671 12.2261 32.1093 12.725 32.0113 13.2657C31.9133 13.8063 31.9794 14.364 32.2013 14.8667V15C32.4126 15.4929 32.7634 15.9134 33.2105 16.2095C33.6577 16.5056 34.1817 16.6645 34.718 16.6667H35.0013C35.8854 16.6667 36.7332 17.0178 37.3583 17.643C37.9834 18.2681 38.3346 19.1159 38.3346 20C38.3346 20.884 37.9834 21.7319 37.3583 22.357C36.7332 22.9821 35.8854 23.3333 35.0013 23.3333H34.8513C34.315 23.3355 33.791 23.4944 33.3439 23.7905C32.8967 24.0866 32.5459 24.507 32.3346 25Z" stroke="#EDA700" stroke-width="2.5" stroke-linecap="round" stroke-linejoin="round"/>
</g>
<defs>
<clipPath id="clip0_1376_7968">
<rect width="40" height="40" fill="white"/>
</clipPath>
</defs>
</svg>
