<svg width="40" height="40" viewBox="0 0 40 40" fill="none" xmlns="http://www.w3.org/2000/svg">
<path d="M19.9984 9.72498L19.6072 9.84373L3.98219 15.0787L0.429688 16.25L2.49844 16.9125V27.85C1.75219 28.2837 1.24844 29.075 1.24844 30C1.24844 30.663 1.51183 31.2989 1.98067 31.7677C2.44951 32.2366 3.0854 32.5 3.74844 32.5C4.41148 32.5 5.04736 32.2366 5.5162 31.7677C5.98505 31.2989 6.24844 30.663 6.24844 30C6.24844 29.075 5.74469 28.2837 4.99844 27.85V17.775L7.49844 18.5937V25C7.49844 26.025 8.12344 26.875 8.86594 27.4625C9.60844 28.0462 10.5309 28.4587 11.6384 28.8287C13.8559 29.5662 16.7784 30 19.9984 30C23.2184 30 26.1409 29.5675 28.3584 28.8275C29.4659 28.4587 30.3884 28.0462 31.1309 27.4612C31.8734 26.875 32.4984 26.025 32.4984 25V18.5937L36.0147 17.4212L39.5672 16.25L36.0134 15.0775L20.3884 9.84373L19.9984 9.72498ZM19.9984 12.3437L31.7172 16.25L19.9984 20.1562L8.27969 16.25L19.9984 12.3437ZM9.99844 19.4537L19.6084 22.6562L19.9984 22.7737L20.3897 22.655L29.9984 19.4525V25C29.9984 25.0125 30.0034 25.1575 29.6072 25.4687C29.2122 25.7812 28.5034 26.175 27.5759 26.485C25.7234 27.1012 22.9922 27.5 19.9984 27.5C17.0047 27.5 14.2734 27.1025 12.4197 26.4837C11.4947 26.175 10.7847 25.78 10.3897 25.4687C9.99219 25.1562 9.99844 25.0125 9.99844 25V19.4537Z" fill="#6263A5"/>
</svg>
