<svg width="40" height="40" viewBox="0 0 40 40" fill="none" xmlns="http://www.w3.org/2000/svg">
<path fill-rule="evenodd" clip-rule="evenodd" d="M19.8967 2.08331H20.1033C23.5517 2.08331 26.28 2.08331 28.415 2.40165C30.62 2.73165 32.37 3.42498 33.7317 4.93831C35.0767 6.43165 35.6783 8.32165 35.965 10.705C36.25 13.05 36.25 16.0583 36.25 19.9133V20.0866C36.25 23.9416 36.25 26.95 35.9667 29.295C35.6783 31.6783 35.0767 33.5683 33.7333 35.0616C32.37 36.575 30.6217 37.2683 28.415 37.5983C26.28 37.9166 23.5517 37.9166 20.105 37.9166H19.895C16.4483 37.9166 13.72 37.9166 11.585 37.5983C9.37833 37.2683 7.63 36.575 6.26833 35.0616C4.92333 33.5683 4.32167 31.6783 4.035 29.295C3.75 26.95 3.75 23.9416 3.75 20.0866V19.9133C3.75 16.0583 3.75 13.05 4.03333 10.7066C4.32167 8.31998 4.92333 6.43165 6.26667 4.93831C7.63 3.42498 9.37833 2.73165 11.585 2.40165C13.72 2.08331 16.4483 2.08331 19.8967 2.08331ZM11.955 4.87498C10.0767 5.15498 8.96 5.68331 8.125 6.60998C7.275 7.55665 6.775 8.85331 6.515 11.0066C6.25167 13.1833 6.25 16.04 6.25 20C6.25 23.96 6.25167 26.8166 6.51667 28.9933C6.77667 31.1466 7.27333 32.4433 8.125 33.39C8.96 34.3166 10.0767 34.845 11.955 35.125C13.8833 35.4133 16.425 35.4166 20 35.4166C23.575 35.4166 26.1167 35.4133 28.045 35.125C29.9233 34.845 31.04 34.3166 31.8733 33.39C32.7267 32.4433 33.2233 31.1466 33.485 28.9933C33.7483 26.8166 33.75 23.96 33.75 20C33.75 16.04 33.7483 13.1833 33.4833 11.0066C33.2233 8.85331 32.7267 7.55665 31.875 6.60998C31.04 5.68331 29.9233 5.15498 28.045 4.87498C26.1167 4.58665 23.575 4.58331 20 4.58331C16.425 4.58331 13.8833 4.58665 11.955 4.87498ZM14.86 8.74998H25.14C25.7733 8.74998 26.3233 8.74998 26.8033 8.87831C27.439 9.04854 28.0186 9.38303 28.4841 9.84818C28.9495 10.3133 29.2844 10.8928 29.455 11.5283C29.585 12.0116 29.585 12.5583 29.5833 13.195V13.4733C29.5833 14.1066 29.5833 14.6566 29.455 15.1366C29.2848 15.7723 28.9503 16.3519 28.4851 16.8174C28.02 17.2828 27.4405 17.6177 26.805 17.7883C26.3217 17.9183 25.775 17.9183 25.1383 17.9166H14.8617C14.2283 17.9166 13.6783 17.9166 13.1983 17.7883C12.5627 17.6181 11.983 17.2836 11.5176 16.8184C11.0521 16.3533 10.7173 15.7738 10.5467 15.1383C10.4167 14.655 10.4183 14.1083 10.4183 13.4716V13.1933C10.4183 12.56 10.4183 12.01 10.5467 11.53C10.7169 10.8943 11.0514 10.3147 11.5165 9.84924C11.9817 9.38379 12.5611 9.04894 13.1967 8.87831C13.68 8.74831 14.2267 8.74998 14.8633 8.74998M15 11.25C14.145 11.25 13.9617 11.26 13.8433 11.2933C13.6316 11.3501 13.4385 11.4617 13.2834 11.6167C13.1284 11.7718 13.0168 11.9649 12.96 12.1766C12.9267 12.295 12.9167 12.4766 12.9167 13.3333C12.9167 14.1883 12.9267 14.3716 12.96 14.49C13.0168 14.7018 13.1284 14.8949 13.2834 15.0499C13.4385 15.205 13.6316 15.3165 13.8433 15.3733C13.9617 15.4066 14.1433 15.4166 15 15.4166H25C25.855 15.4166 26.0383 15.4066 26.1567 15.3733C26.3684 15.3165 26.5615 15.205 26.7166 15.0499C26.8716 14.8949 26.9832 14.7018 27.04 14.49C27.0733 14.3716 27.0833 14.19 27.0833 13.3333C27.0833 12.4783 27.0733 12.295 27.04 12.1766C26.9832 11.9649 26.8716 11.7718 26.7166 11.6167C26.5615 11.4617 26.3684 11.3501 26.1567 11.2933C26.0383 11.26 25.8567 11.25 25 11.25H15Z" fill="#6263A5"/>
<path d="M14.9993 21.6667C14.9993 22.1087 14.8238 22.5326 14.5112 22.8452C14.1986 23.1577 13.7747 23.3333 13.3327 23.3333C12.8907 23.3333 12.4667 23.1577 12.1542 22.8452C11.8416 22.5326 11.666 22.1087 11.666 21.6667C11.666 21.2246 11.8416 20.8007 12.1542 20.4882C12.4667 20.1756 12.8907 20 13.3327 20C13.7747 20 14.1986 20.1756 14.5112 20.4882C14.8238 20.8007 14.9993 21.2246 14.9993 21.6667ZM14.9993 28.3333C14.9993 28.7754 14.8238 29.1993 14.5112 29.5118C14.1986 29.8244 13.7747 30 13.3327 30C12.8907 30 12.4667 29.8244 12.1542 29.5118C11.8416 29.1993 11.666 28.7754 11.666 28.3333C11.666 27.8913 11.8416 27.4674 12.1542 27.1548C12.4667 26.8423 12.8907 26.6667 13.3327 26.6667C13.7747 26.6667 14.1986 26.8423 14.5112 27.1548C14.8238 27.4674 14.9993 27.8913 14.9993 28.3333ZM21.666 21.6667C21.666 22.1087 21.4904 22.5326 21.1779 22.8452C20.8653 23.1577 20.4414 23.3333 19.9993 23.3333C19.5573 23.3333 19.1334 23.1577 18.8208 22.8452C18.5083 22.5326 18.3327 22.1087 18.3327 21.6667C18.3327 21.2246 18.5083 20.8007 18.8208 20.4882C19.1334 20.1756 19.5573 20 19.9993 20C20.4414 20 20.8653 20.1756 21.1779 20.4882C21.4904 20.8007 21.666 21.2246 21.666 21.6667ZM21.666 28.3333C21.666 28.7754 21.4904 29.1993 21.1779 29.5118C20.8653 29.8244 20.4414 30 19.9993 30C19.5573 30 19.1334 29.8244 18.8208 29.5118C18.5083 29.1993 18.3327 28.7754 18.3327 28.3333C18.3327 27.8913 18.5083 27.4674 18.8208 27.1548C19.1334 26.8423 19.5573 26.6667 19.9993 26.6667C20.4414 26.6667 20.8653 26.8423 21.1779 27.1548C21.4904 27.4674 21.666 27.8913 21.666 28.3333ZM28.3327 21.6667C28.3327 22.1087 28.1571 22.5326 27.8445 22.8452C27.532 23.1577 27.108 23.3333 26.666 23.3333C26.224 23.3333 25.8001 23.1577 25.4875 22.8452C25.1749 22.5326 24.9993 22.1087 24.9993 21.6667C24.9993 21.2246 25.1749 20.8007 25.4875 20.4882C25.8001 20.1756 26.224 20 26.666 20C27.108 20 27.532 20.1756 27.8445 20.4882C28.1571 20.8007 28.3327 21.2246 28.3327 21.6667ZM28.3327 28.3333C28.3327 28.7754 28.1571 29.1993 27.8445 29.5118C27.532 29.8244 27.108 30 26.666 30C26.224 30 25.8001 29.8244 25.4875 29.5118C25.1749 29.1993 24.9993 28.7754 24.9993 28.3333C24.9993 27.8913 25.1749 27.4674 25.4875 27.1548C25.8001 26.8423 26.224 26.6667 26.666 26.6667C27.108 26.6667 27.532 26.8423 27.8445 27.1548C28.1571 27.4674 28.3327 27.8913 28.3327 28.3333Z" fill="#6263A5"/>
</svg>
