<svg width="40" height="40" viewBox="0 0 40 40" fill="none" xmlns="http://www.w3.org/2000/svg">
<path d="M34.9985 3.33334L31.6652 6.66667M31.6652 6.66667L36.6652 11.6667L30.8318 17.5L25.8318 12.5M31.6652 6.66667L25.8318 12.5M18.9818 19.35C19.8424 20.1991 20.5265 21.2101 20.9948 22.3247C21.463 23.4392 21.7062 24.6354 21.7102 25.8444C21.7143 27.0533 21.4791 28.2511 21.0184 29.3688C20.5576 30.4865 19.8803 31.5021 19.0254 32.3569C18.1706 33.2118 17.155 33.8891 16.0373 34.3499C14.9196 34.8106 13.7218 35.0458 12.5129 35.0417C11.3039 35.0377 10.1077 34.7945 8.99316 34.3263C7.87857 33.858 6.86762 33.1739 6.0185 32.3133C4.34872 30.5845 3.42477 28.269 3.44566 25.8655C3.46654 23.462 4.43059 21.1629 6.13017 19.4633C7.82974 17.7638 10.1289 16.7997 12.5323 16.7788C14.9358 16.7579 17.2513 17.6819 18.9802 19.3517L18.9818 19.35ZM18.9818 19.35L25.8318 12.5" stroke="#EDA700" stroke-width="2.5" stroke-linecap="round" stroke-linejoin="round"/>
</svg>
