<svg width="40" height="40" viewBox="0 0 40 40" fill="none" xmlns="http://www.w3.org/2000/svg">
<path d="M28.3346 35V31.6667C28.3346 29.8986 27.6323 28.2029 26.382 26.9526C25.1318 25.7024 23.4361 25 21.668 25H8.33464C6.56653 25 4.87083 25.7024 3.62059 26.9526C2.37035 28.2029 1.66797 29.8986 1.66797 31.6667V35" stroke="#6263A5" stroke-width="2.5" stroke-linecap="round" stroke-linejoin="round"/>
<path d="M14.9987 18.3333C18.6806 18.3333 21.6654 15.3486 21.6654 11.6667C21.6654 7.98477 18.6806 5 14.9987 5C11.3168 5 8.33203 7.98477 8.33203 11.6667C8.33203 15.3486 11.3168 18.3333 14.9987 18.3333Z" stroke="#6263A5" stroke-width="2.5" stroke-linecap="round" stroke-linejoin="round"/>
<path d="M38.332 35V31.6667C38.3309 30.1896 37.8393 28.7546 36.9343 27.5872C36.0293 26.4198 34.7622 25.586 33.332 25.2167" stroke="#6263A5" stroke-width="2.5" stroke-linecap="round" stroke-linejoin="round"/>
<path d="M26.668 5.21666C28.102 5.58383 29.373 6.41783 30.2807 7.58718C31.1884 8.75653 31.681 10.1947 31.681 11.675C31.681 13.1553 31.1884 14.5935 30.2807 15.7628C29.373 16.9322 28.102 17.7662 26.668 18.1333" stroke="#6263A5" stroke-width="2.5" stroke-linecap="round" stroke-linejoin="round"/>
</svg>
