<svg width="40" height="40" viewBox="0 0 40 40" fill="none" xmlns="http://www.w3.org/2000/svg">
<path d="M36 27.2699V12.8669C35.9994 12.2355 35.8348 11.6153 35.5227 11.0686C35.2107 10.5219 34.7622 10.068 34.2222 9.75226L21.7778 2.55078C21.2373 2.23475 20.6241 2.06837 20 2.06837C19.3759 2.06837 18.7627 2.23475 18.2222 2.55078L5.77778 9.75226C5.2378 10.068 4.7893 10.5219 4.47726 11.0686C4.16523 11.6153 4.00064 12.2355 4 12.8669V27.2699C4.00064 27.9013 4.16523 28.5214 4.47726 29.0681C4.7893 29.6148 5.2378 30.0688 5.77778 30.3845L18.2222 37.586C18.7627 37.902 19.3759 38.0684 20 38.0684C20.6241 38.0684 21.2373 37.902 21.7778 37.586L34.2222 30.3845C34.7622 30.0688 35.2107 29.6148 35.5227 29.0681C35.8348 28.5214 35.9994 27.9013 36 27.2699Z" stroke="#EDA700" stroke-width="2.5" stroke-linecap="round" stroke-linejoin="round"/>
<path d="M12 7.06837L20 11.0684L28 7.06837" stroke="#EDA700" stroke-width="2.5" stroke-linecap="round" stroke-linejoin="round"/>
<path d="M12 34.0684V24.741L4 20.0684" stroke="#EDA700" stroke-width="2.5" stroke-linecap="round" stroke-linejoin="round"/>
<path d="M36 20.0684L28 24.741V34.0684" stroke="#EDA700" stroke-width="2.5" stroke-linecap="round" stroke-linejoin="round"/>
<path d="M5 11.0684L20 20.0684L35 11.0684" stroke="#EDA700" stroke-width="2.5" stroke-linecap="round" stroke-linejoin="round"/>
<path d="M20 38.0684V20.0684" stroke="#EDA700" stroke-width="2.5" stroke-linecap="round" stroke-linejoin="round"/>
</svg>
