<svg width="40" height="40" viewBox="0 0 40 40" fill="none" xmlns="http://www.w3.org/2000/svg">
<path d="M20 5.26843C20.513 5.26843 21.0164 5.41169 21.4521 5.6825C21.8878 5.95324 22.2387 6.34081 22.4658 6.80066L25.5215 12.9911L25.5566 13.0526C25.5951 13.1116 25.644 13.1632 25.7012 13.205C25.7776 13.2606 25.8664 13.2977 25.96 13.3114L32.792 14.3104C33.3001 14.3839 33.7783 14.5988 34.1709 14.9296C34.5635 15.2603 34.8559 15.6943 35.0146 16.1825C35.1733 16.6706 35.1924 17.1939 35.0693 17.6923C34.9462 18.1905 34.686 18.6447 34.3184 19.0028L29.377 23.8202V23.8212C29.3093 23.887 29.2578 23.9677 29.2285 24.0575C29.1993 24.1473 29.1931 24.2437 29.209 24.3368H29.208L30.375 31.1395C30.4428 31.5343 30.4234 31.9395 30.3184 32.326C30.2133 32.7125 30.0257 33.0716 29.7676 33.3778C29.5093 33.6841 29.1866 33.9307 28.8232 34.0995C28.4601 34.2681 28.0644 34.3555 27.6641 34.3553H27.6631C27.2159 34.3549 26.7752 34.2451 26.3799 34.036V34.035L20.2705 30.8251V30.8241C20.1872 30.7806 20.094 30.7587 20 30.7587C19.9059 30.7587 19.8129 30.7814 19.7295 30.8251L13.6133 34.036C13.1592 34.275 12.6475 34.3823 12.1357 34.3456C11.6239 34.3087 11.1321 34.1296 10.7168 33.828C10.3015 33.5264 9.97857 33.114 9.78516 32.6385C9.59191 32.1633 9.53533 31.6432 9.62207 31.1376L10.7891 24.3348V24.3339C10.805 24.241 10.7985 24.1452 10.7695 24.0555C10.7405 23.9658 10.6895 23.8842 10.6221 23.8182V23.8192L5.68262 19.0009C5.31493 18.6427 5.05471 18.1886 4.93164 17.6903C4.80858 17.1919 4.8276 16.6687 4.98633 16.1805C5.14506 15.6924 5.43747 15.2583 5.83008 14.9276C6.22268 14.597 6.69999 14.3829 7.20801 14.3094L14.041 13.3094C14.1345 13.2958 14.2234 13.2595 14.2998 13.204C14.376 13.1486 14.4376 13.0755 14.4795 12.9911L17.5342 6.80066C17.7613 6.34066 18.1131 5.9533 18.5488 5.6825C18.9844 5.41181 19.4872 5.26851 20 5.26843ZM19.9951 7.46765C19.887 7.4677 19.7808 7.49613 19.6875 7.55066C19.594 7.6054 19.5169 7.68471 19.4639 7.77917L16.4199 13.9569V13.9579C16.2224 14.3575 15.9301 14.7029 15.5693 14.9647C15.2084 15.2266 14.789 15.396 14.3477 15.4598L14.3486 15.4608L7.51465 16.4608C7.40704 16.4764 7.30583 16.5216 7.22266 16.5917C7.13942 16.6619 7.07757 16.7547 7.04395 16.8583C7.01045 16.9616 7.00622 17.0721 7.03223 17.1776C7.05835 17.2833 7.11343 17.38 7.19141 17.4559L12.1377 22.2675H12.1387C12.4589 22.5795 12.6983 22.9651 12.8359 23.3905C12.9736 23.816 13.0055 24.2692 12.9287 24.7098L11.7617 31.5126C11.7433 31.6198 11.755 31.7302 11.7959 31.8309C11.8369 31.9318 11.906 32.0189 11.9941 32.0829C12.0822 32.1468 12.1863 32.1854 12.2949 32.1932C12.4035 32.201 12.5121 32.1776 12.6084 32.1268L18.7139 28.9071C19.1094 28.6984 19.5499 28.5897 19.9971 28.5897C20.4443 28.5897 20.8847 28.6984 21.2803 28.9071L27.3867 32.1122C27.483 32.1626 27.5919 32.1845 27.7002 32.1766C27.8084 32.1687 27.9122 32.131 28 32.0673C28.0879 32.0034 28.1563 31.9159 28.1973 31.8153C28.2383 31.7146 28.2507 31.6041 28.2324 31.4969L27.0654 24.6942C26.9901 24.2546 27.0232 23.8029 27.1611 23.3788C27.2991 22.9548 27.538 22.5708 27.8574 22.2596L32.7988 17.4423C32.8768 17.3663 32.9328 17.2705 32.959 17.1649C32.9851 17.0593 32.9809 16.9481 32.9473 16.8446C32.9137 16.7412 32.8517 16.6491 32.7686 16.579C32.6854 16.5089 32.5842 16.4628 32.4766 16.4471H32.4756L25.6426 15.4471C25.2012 15.3831 24.7817 15.2132 24.4209 14.951C24.1051 14.7216 23.8424 14.4276 23.6494 14.0897L23.5713 13.9423L20.5273 7.77917L20.4834 7.71082C20.4349 7.64634 20.3738 7.59168 20.3037 7.55066C20.2102 7.49597 20.1034 7.46765 19.9951 7.46765Z" fill="#6263A5" stroke="#6263A5" stroke-width="0.5"/>
</svg>
