<svg width="40" height="40" viewBox="0 0 40 40" fill="none" xmlns="http://www.w3.org/2000/svg">
<path d="M33.332 11.6667H6.66536C4.82442 11.6667 3.33203 13.159 3.33203 15V31.6667C3.33203 33.5076 4.82442 35 6.66536 35H33.332C35.173 35 36.6654 33.5076 36.6654 31.6667V15C36.6654 13.159 35.173 11.6667 33.332 11.6667Z" stroke="#6263A5" stroke-width="2.5" stroke-linecap="round" stroke-linejoin="round"/>
<path d="M26.6654 35V8.33333C26.6654 7.44928 26.3142 6.60143 25.6891 5.97631C25.0639 5.35119 24.2161 5 23.332 5H16.6654C15.7813 5 14.9335 5.35119 14.3083 5.97631C13.6832 6.60143 13.332 7.44928 13.332 8.33333V35" stroke="#6263A5" stroke-width="2.5" stroke-linecap="round" stroke-linejoin="round"/>
</svg>
