<svg width="40" height="40" viewBox="0 0 40 40" fill="none" xmlns="http://www.w3.org/2000/svg">
<path d="M8.21652 8.57143C6.79572 8.57143 5.4331 9.13584 4.42845 10.1405C3.42379 11.1452 2.85938 12.5078 2.85938 13.9286V26.0714C2.85938 27.4922 3.42379 28.8548 4.42845 29.8595C5.4331 30.8642 6.79572 31.4286 8.21652 31.4286H21.7879C23.2087 31.4286 24.5714 30.8642 25.576 29.8595C26.5807 28.8548 27.1451 27.4922 27.1451 26.0714V25.3529L33.2194 29.5471C34.8765 30.6914 37.1394 29.5043 37.1394 27.49V12.5043C37.1394 10.49 34.8765 9.30143 33.2194 10.4471L27.1451 14.6414V13.9286C27.1451 12.5078 26.5807 11.1452 25.576 10.1405C24.5714 9.13584 23.2087 8.57143 21.7879 8.57143H8.21652ZM27.1451 17.2443L34.4365 12.21C34.4901 12.173 34.5529 12.1514 34.6179 12.1474C34.683 12.1435 34.7478 12.1575 34.8055 12.1878C34.8632 12.2181 34.9115 12.2636 34.9451 12.3194C34.9788 12.3752 34.9966 12.4391 34.9965 12.5043V27.49C34.9966 27.5552 34.9788 27.6191 34.9451 27.6749C34.9115 27.7307 34.8632 27.7762 34.8055 27.8065C34.7478 27.8368 34.683 27.8508 34.6179 27.8468C34.5529 27.8429 34.4901 27.8213 34.4365 27.7843L27.1451 22.7471V17.2443ZM5.00223 13.9286C5.00223 13.0761 5.34088 12.2585 5.94367 11.6557C6.54647 11.0529 7.36404 10.7143 8.21652 10.7143H21.7879C22.6404 10.7143 23.458 11.0529 24.0608 11.6557C24.6636 12.2585 25.0022 13.0761 25.0022 13.9286V26.0714C25.0022 26.9239 24.6636 27.7415 24.0608 28.3443C23.458 28.9471 22.6404 29.2857 21.7879 29.2857H8.21652C7.36404 29.2857 6.54647 28.9471 5.94367 28.3443C5.34088 27.7415 5.00223 26.9239 5.00223 26.0714V13.9286Z" fill="#EDA700"/>
</svg>
