<svg width="40" height="40" viewBox="0 0 40 40" fill="none" xmlns="http://www.w3.org/2000/svg">
<g clip-path="url(#clip0_1244_5688)">
<path fill-rule="evenodd" clip-rule="evenodd" d="M22.5 8C22.5 5.2 22.5 3.8 23.045 2.725C23.525 1.785 24.29 1.02 25.23 0.539995C26.3 -0.00500485 27.7 -0.00500488 30.505 -0.00500488H32.005C34.805 -0.00500488 36.205 -0.00500485 37.28 0.539995C38.22 1.02 38.985 1.785 39.465 2.725C40.01 3.795 40.01 5.195 40.01 8V9.5C40.01 12.3 40.01 13.7 39.465 14.775C38.9856 15.7158 38.2208 16.4806 37.28 16.96C36.21 17.505 34.81 17.505 32.005 17.505H30.505C27.705 17.505 26.305 17.505 25.23 16.96C24.2892 16.4806 23.5244 15.7158 23.045 14.775C22.5 13.705 22.5 12.305 22.5 9.5V8ZM30.5 2.49999H32C33.4425 2.49999 34.3725 2.5 35.075 2.56C35.755 2.615 36.005 2.71 36.13 2.7725C36.6 3.0125 36.9825 3.39499 37.2225 3.865C37.285 3.99 37.38 4.24 37.435 4.92C37.4925 5.6275 37.495 6.56 37.495 7.995V9.495C37.495 10.9375 37.495 11.8675 37.435 12.57C37.38 13.25 37.285 13.5 37.2225 13.625C36.9828 14.0954 36.6004 14.4778 36.13 14.7175C36.005 14.78 35.755 14.875 35.075 14.93C34.3675 14.9875 33.435 14.99 32 14.99H30.5C29.0575 14.99 28.1275 14.99 27.425 14.93C26.745 14.875 26.495 14.78 26.37 14.7175C25.8996 14.4778 25.5172 14.0954 25.2775 13.625C25.215 13.5 25.12 13.25 25.065 12.57C25.0079 11.5461 24.9879 10.5204 25.005 9.495V7.995C25.005 6.5525 25.005 5.6225 25.065 4.92C25.12 4.24 25.215 3.99 25.2775 3.865C25.5175 3.39499 25.9 3.0125 26.37 2.7725C26.495 2.71 26.745 2.615 27.425 2.56C28.1325 2.5 29.065 2.49999 30.5 2.49999ZM0.545 10.225C0 11.295 0 12.695 0 15.5V32C0 34.8 0 36.2 0.545 37.275C1.025 38.215 1.79 38.98 2.73 39.46C3.8 40.005 5.2 40.005 8.005 40.005H24.505C27.305 40.005 28.705 40.005 29.78 39.46C30.72 38.98 31.485 38.215 31.965 37.275C32.51 36.205 32.51 34.805 32.51 32V30.5C32.51 27.7 32.51 26.3 31.965 25.225C31.4856 24.2842 30.7208 23.5194 29.78 23.04C28.71 22.495 27.31 22.495 24.505 22.495H17.505V15.495C17.505 12.695 17.505 11.295 16.96 10.22C16.4806 9.27923 15.7158 8.51435 14.775 8.035C13.705 7.49 12.305 7.49 9.5 7.49H8C5.2 7.49 3.8 7.49 2.725 8.035C1.78423 8.51435 1.01936 9.27923 0.54 10.22L0.545 10.225ZM14.995 15.5V22.5H2.495V15.5C2.495 14.0575 2.495 13.1275 2.555 12.425C2.61 11.745 2.705 11.495 2.7675 11.37C3.0075 10.9 3.39 10.5175 3.86 10.2775C3.985 10.215 4.235 10.12 4.915 10.065C5.6225 10.0075 6.555 10.005 7.99 10.005H9.49C10.9325 10.005 11.8625 10.005 12.565 10.065C13.245 10.12 13.495 10.215 13.62 10.2775C14.09 10.5175 14.4725 10.9 14.7125 11.37C14.775 11.495 14.87 11.745 14.925 12.425C14.9825 13.1325 14.985 14.065 14.985 15.5H14.995ZM2.495 25H14.995V37.5H7.995C6.5525 37.5 5.6225 37.5 4.92 37.44C4.24 37.385 3.99 37.29 3.865 37.2275C3.39462 36.9878 3.01218 36.6054 2.7725 36.135C2.71 36.01 2.615 35.76 2.56 35.08C2.5 34.3725 2.5 33.44 2.5 32.005V25.005L2.495 25ZM17.495 25H24.495C25.9375 25 26.8675 25 27.57 25.06C28.25 25.115 28.5 25.21 28.625 25.2725C29.095 25.5125 29.4775 25.895 29.7175 26.365C29.78 26.49 29.875 26.74 29.93 27.42C29.9875 28.1275 29.99 29.06 29.99 30.495V31.995C29.99 33.4375 29.99 34.3675 29.93 35.07C29.875 35.75 29.78 36 29.7175 36.125C29.4778 36.5954 29.0954 36.9778 28.625 37.2175C28.5 37.28 28.25 37.375 27.57 37.43C26.8625 37.4875 25.93 37.49 24.495 37.49H17.495V24.99V25Z" fill="#EDA700"/>
</g>
<defs>
<clipPath id="clip0_1244_5688">
<rect width="40" height="40" fill="white"/>
</clipPath>
</defs>
</svg>
