<svg width="686" height="587" viewBox="0 0 686 587" fill="none" xmlns="http://www.w3.org/2000/svg">
<path d="M442.946 428.025C339.381 324.512 170.835 324.503 67.2418 428.025L0 360.817C140.652 220.228 369.526 220.247 510.179 360.817L442.937 428.025H442.946Z" fill="#F5F5F5"/>
<path d="M430.801 587C338.415 587 246.038 551.853 175.707 481.567L242.949 414.36C346.524 517.881 515.069 517.891 618.653 414.36L685.895 481.567C615.564 551.862 523.187 587 430.81 587H430.801Z" fill="#F5F5F5"/>
<path d="M377.432 221.359C438.59 221.359 488.168 171.806 488.168 110.68C488.168 49.553 438.59 0 377.432 0C316.274 0 266.695 49.553 266.695 110.68C266.695 171.806 316.274 221.359 377.432 221.359Z" fill="#F5F5F5"/>
</svg>
