<svg width="16" height="16" viewBox="0 0 16 16" fill="none" xmlns="http://www.w3.org/2000/svg">
<path d="M13.6427 2.31123L13.4348 2.51851L12.2514 3.70067C13.3415 4.83036 13.8811 6.2198 13.8811 7.87871C13.8811 9.54733 13.3208 10.9575 12.1892 12.0872C11.0575 13.2272 9.66616 13.7973 7.9943 13.7973C6.32243 13.7973 4.92069 13.2272 3.79942 12.0872C2.66779 10.9471 2.10748 9.54798 2.10748 7.87871C2.10748 6.19907 2.66779 4.77854 3.79942 3.63849L3.80978 3.62812C3.34275 3.1721 2.87571 2.71608 2.40803 2.24905L2.39767 2.25941C0.871557 3.79395 0.103312 5.66014 0.103312 7.8677C0.103312 10.0552 0.861193 11.9214 2.39767 13.4663C3.92444 15.0002 5.79321 15.7781 8.00465 15.7781C10.2161 15.7781 12.0849 15.0105 13.622 13.4656C15.1585 11.9317 15.9267 10.0655 15.9267 7.8677C15.906 5.69123 15.1481 3.83541 13.6427 2.31123Z" fill="#EDA700"/>
<path d="M7.99463 15.8921C5.76246 15.8921 3.85157 15.1038 2.31509 13.5492C0.778608 11.9946 0 10.0863 0 7.87871C0 5.64978 0.778608 3.74214 2.31509 2.19788L2.398 2.12469L2.4712 2.18687C2.93823 2.64354 3.40527 3.10992 3.8723 3.56595L3.94549 3.63849L3.86193 3.72141C2.76139 4.84073 2.20109 6.24054 2.20109 7.88908C2.20109 9.52661 2.76139 10.916 3.86193 12.025C4.96312 13.1346 6.35385 13.7046 7.98426 13.7046C9.62503 13.7046 11.0054 13.145 12.1059 12.025C13.2071 10.916 13.7674 9.51624 13.7674 7.88908C13.7674 6.27163 13.2279 4.89255 12.1584 3.78359L12.0852 3.71104L13.6327 2.16614L13.7053 2.23869C15.2314 3.77323 15.9996 5.68087 15.9996 7.87871C15.9996 10.0863 15.2106 11.9939 13.6742 13.5492C12.1273 15.1038 10.2164 15.8921 7.99463 15.8921ZM2.398 2.40452C0.934073 3.8976 0.196919 5.74306 0.196919 7.87807C0.196919 10.0351 0.954802 11.8903 2.46084 13.4034C3.95586 14.9172 5.82464 15.6848 7.99463 15.6848C10.1646 15.6848 12.0334 14.9172 13.5388 13.4041C15.0448 11.8903 15.8131 10.0344 15.8131 7.87871C15.8131 5.76379 15.0863 3.93905 13.6534 2.45699L12.4071 3.70068C13.4662 4.83037 13.9961 6.23989 13.9961 7.87871C13.9961 9.56806 13.4144 11.0093 12.2724 12.1604C11.1304 13.3108 9.69758 13.9016 8.00499 13.9016C6.3124 13.9016 4.86919 13.3212 3.73756 12.1597C2.59557 11.0093 2.01388 9.56871 2.01388 7.87807C2.01388 6.20944 2.57484 4.77855 3.66501 3.63849C3.23507 3.23505 2.81267 2.82365 2.398 2.40452Z" fill="#EDA700"/>
<path d="M8.76315 0.0829728H7.23704V5.80526H8.76315V0.0829728Z" fill="#EDA700"/>
<path d="M8.8359 5.87775H7.17505V0H8.8359V5.87775ZM7.30979 5.72229H8.70117V0.155463H7.30979V5.72229Z" fill="#EDA700"/>
</svg>
