<svg width="49" height="49" viewBox="0 0 49 49" fill="none" xmlns="http://www.w3.org/2000/svg">
<path d="M24.5141 0.407556C37.7411 0.407556 48.5362 11.1754 48.5362 24.436C48.5362 37.6966 37.7504 48.4645 24.5141 48.4645C11.2778 48.4645 0.454832 37.6966 0.454832 24.436C0.454832 11.1754 11.2871 0.407556 24.5141 0.407556Z" fill="url(#paint0_linear_140_16)"/>
<path d="M4.33406 37.6687C5.69853 36.8903 6.84023 36.7142 6.84023 36.7142L10.5624 36.6308L12.558 37.02L13.6162 36.1304L16.7535 34.8238L31.7534 34.9165L32.9879 38.0672L34.8444 38.929L37.9075 39.8L43.5139 39.2255C31.0944 55.1178 10.683 48.3254 4.3155 37.6687V37.6502L4.33406 37.6687Z" fill="white"/>
<path d="M17.8492 19.1265L18.2669 18.5612C18.2669 18.5612 25.5626 15.8831 27.2612 16.0314L28.6628 16.6708L31.3361 18.8763L32.4685 21.1837L32.8862 26.2618L32.4221 29.1067L32.3757 30.4596L32.255 32.9616L31.958 34.3887L29.0991 35.2041L28.7371 35.5377L27.5583 36.5663L24.7365 37.8637L22.351 38.1602L20.9216 37.7895L19.9005 37.6969L18.9073 37.3818L17.7285 35.8435L16.6239 34.4535L15.9835 32.4427L16.0299 31.1917L15.8071 29.6719L16.494 27.3645L16.8096 26.4842L16.6889 25.4278L16.5683 24.9645L16.3176 23.7413L16.0485 22.8795L15.9742 21.9991L16.2434 21.6099L16.8838 21.3875L17.2087 20.9891L17.8399 19.1265H17.8492Z" fill="#E9D6BD"/>
<path d="M11.4998 37.0574C10.5344 37.7709 9.9868 38.4844 8.6409 40.0412C8.13966 40.6714 8.13038 40.6806 7.29499 41.6073L7.74981 42.0614C8.08397 41.4312 8.13038 41.422 8.6409 40.625C9.47629 39.3277 10.488 37.984 11.4998 37.0574Z" fill="#24272A"/>
<path d="M11.8814 36.974C10.8325 37.984 10.2385 38.9478 8.64193 41.6351C8.39132 42.0984 8.45629 41.9131 8.12213 42.4598L8.6048 42.9417C8.73475 42.6452 8.47485 43.229 8.64193 42.812C9.47732 40.9679 10.7397 38.401 11.8814 36.974Z" fill="#24272A"/>
<path d="M7.84303 37.6412C8.09364 37.428 8.34426 37.2612 8.64129 37.1408C9.18893 36.8906 9.90366 36.7238 10.7019 36.6774C10.2007 36.3809 9.52309 36.2141 8.64129 36.177H8.17718C6.96123 36.3438 6.11655 36.6404 4.55716 37.4373L4.72424 37.567C6.91481 37.1037 7.71308 37.15 7.83375 37.6504L7.84303 37.6412Z" fill="#24272A"/>
<path d="M9.00331 43.1084L9.54167 43.5903C10.1357 41.496 11.0825 38.8643 12.2985 36.8905C11.2496 38.2341 10.8504 38.9477 9.00331 43.1084Z" fill="#24272A"/>
<path d="M41.3419 39.133L39.8011 39.2442C39.3834 39.2442 38.9471 39.0682 38.1953 39.1145C35.4199 39.4481 36.2646 38.5678 32.9787 37.984C33.0623 38.1971 33.2293 38.5678 33.3129 38.818C37.4341 39.2813 36.0047 42.0242 39.6619 40.8103L41.2212 39.8466L43.7738 39.1516H41.3326L41.3419 39.133Z" fill="#24272A"/>
<path d="M30.1947 48.1587L31.587 47.7603C32.6359 44.7764 32.6452 42.1354 32.9794 38.5677C32.2275 42.0891 31.2436 45.6011 30.1947 48.1587Z" fill="#24272A"/>
<path d="M21.5443 39.995C21.2101 39.4946 20.6253 38.6977 20.449 38.4382C20.2355 38.188 17.2095 41.0051 17.0889 40.8753C17.0053 40.7549 14.2764 43.1827 13.7287 43.3959C13.1811 43.5534 14.5827 43.4607 14.7962 43.2754C14.7962 43.4422 14.8612 43.8592 14.8612 43.8592L17.553 42.3487C17.4323 42.4321 17.6829 43.3959 17.6829 43.3959C17.0517 44.9063 15.9657 45.8701 15.2417 46.4168L14.8055 46.7689L18.5554 48.1033L19.1495 48.2145C19.2794 47.084 19.4836 43.2661 19.6971 43.5534C19.9477 43.8499 21.2565 42.8769 21.0802 42.7565C21.6742 43.2198 22.259 43.6831 22.8438 44.1001C22.4261 42.7101 21.962 41.3757 21.535 39.9857L21.5443 39.995Z" fill="#24272A"/>
<path d="M32.812 38.6048C32.0138 40.4952 31.132 42.469 30.2873 44.3965C29.4426 46.2869 29.0992 46.9911 28.3381 48.5016L29.619 48.2421C29.9532 47.4452 29.9067 47.5008 30.2873 46.6205C31.2527 44.0165 32.1809 41.1624 32.812 38.6048Z" fill="#24272A"/>
<path d="M32.6912 38.3175C32.2271 38.9847 31.8465 39.5777 31.3917 40.3283C31.1411 41.1253 30.5471 41.7554 30.2964 42.5523C30.2129 42.6821 30.1665 42.8025 30.1665 42.9693C28.9041 44.9061 28.0873 46.8057 27.0384 48.6961L27.9481 48.5849C28.7927 46.8243 29.3311 45.7864 30.2964 43.7292C31.1411 41.8851 31.9394 40.0318 32.6912 38.3175Z" fill="#24272A"/>
<path d="M20.0764 30.0425C20.3735 30.0425 20.6705 30.0425 20.9582 30.0888C21.2924 30.2927 21.673 30.4687 21.97 30.7189C22.3042 30.9321 22.8147 30.8023 22.9817 31.0525C23.1117 31.3027 20.6334 30.9691 20.3735 30.5892C20.2899 30.4224 20.16 30.2093 20.0764 30.0425Z" fill="#24272A"/>
<path d="M26.5092 29.2549C27.6881 29.0047 27.1404 29.885 27.1404 29.9684C26.5928 30.0148 26.1287 30.4318 25.9152 30.5522C25.7481 30.6356 25.1169 30.6819 25.0798 30.6356C25.0798 30.5522 24.4486 30.9692 24.6157 31.0156C24.7828 31.0526 23.3162 31.0989 22.9727 31.0989C22.5922 31.0619 24.9498 30.1352 24.9498 30.1352C25.1633 29.8387 26.0823 29.5514 26.5092 29.2549Z" fill="#24272A"/>
<path d="M29.7858 20.5998C29.9992 21.3133 29.9157 21.2299 29.6187 21.7303C29.5723 21.7767 29.8322 21.7303 29.9157 21.8971C29.9528 21.9435 30.4633 21.3133 29.7858 20.5998Z" fill="#24272A"/>
<path d="M21.6728 18.1718H22.471L22.8052 18.2088L23.2693 18.2552L23.6963 18.422L24.114 18.6351L24.4481 18.8853L24.7823 18.6351L25.2093 18.3756L25.627 18.2088L26.0446 18.1718H26.4252L27.2235 18.2088H26.3788L26.0911 18.2552L25.8312 18.2922L25.497 18.3756L25.1164 18.5424L24.8658 18.7556L24.6152 18.9687L24.4853 19.2189L24.1511 18.9224L23.8541 18.7092L23.5199 18.5054L23.2322 18.3756L22.9723 18.2922L22.601 18.2552L22.2576 18.2088L21.6728 18.1718Z" fill="#24272A"/>
<path d="M23.1876 17.7456L23.9487 17.9587L24.2829 18.005L24.5799 18.0421L24.8676 17.9587L25.6288 17.7456L24.747 17.9216H24.4035L24.0694 17.8753L23.7816 17.829L23.1876 17.7456Z" fill="#24272A"/>
<path d="M23.1865 21.9064L23.4 20.7296H23.103V19.8029L22.6853 20.016L22.4718 19.3396C22.4718 19.3396 22.0912 19.9234 22.1376 19.9234C22.1005 19.9234 21.59 19.3766 21.6364 19.3766C21.5993 19.3766 21.5993 19.7936 21.5993 19.7936L21.098 19.46L21.1444 19.877L20.5133 19.7102L20.5504 20.0438L19.7985 19.9975L19.8821 20.3774C19.8821 20.3774 19.4644 20.4608 19.2509 20.3774C19.0838 20.294 18.4526 21.5914 18.7032 21.4709C19.0838 20.8408 19.7057 20.7203 19.5386 20.9242C19.3251 21.1373 19.1581 21.4246 19.3716 21.7211C19.1581 21.4246 20.3369 21.3875 20.3369 21.3875L20.1234 21.091C20.1234 21.091 20.7546 21.0446 20.7082 20.9705C20.2069 20.5535 21.293 20.5906 21.6364 20.8037C21.9705 21.0539 22.2676 20.7574 22.6853 21.2207L23.1865 21.8972V21.9064Z" fill="#24272A"/>
<path d="M19.1947 21.9896C19.7888 21.7765 20.5778 21.4429 21.0047 21.4058C21.4688 21.4892 22.0536 21.5726 22.3878 21.8692L22.9725 22.3695C23.0561 22.4529 23.019 22.7495 22.889 22.7866C22.7683 22.8236 22.592 22.7495 22.592 22.7495L22.5549 22.4529C22.1743 23.5835 20.4942 23.0368 20.8284 21.7858L20.6149 21.9989L20.1972 21.9618L20.0672 22.2584C20.0672 22.3418 19.7795 22.0916 19.8166 22.1286C19.7795 22.0916 19.2319 22.5456 19.1854 22.4622C19.1854 22.3788 19.9373 21.9989 19.1854 21.9989L19.1947 21.9896Z" fill="#24272A"/>
<path d="M24.9976 21.9898C24.747 22.1566 24.4499 22.3697 24.2457 22.4531C24.0322 22.5829 24.8769 22.4531 24.914 22.4531C24.8676 22.4531 24.2457 23.1296 24.2457 23.1296C24.2457 23.1296 24.8305 22.8794 24.8305 22.8331C24.8305 22.8794 24.9976 22.9628 24.9976 22.9628L24.6634 23.6393L25.3317 23.2223L25.833 23.4261C25.833 23.4261 26.0836 23.0462 26.0464 23.0925C26.0836 23.0462 26.4641 23.0091 26.4641 23.0925C26.4641 23.0091 26.5106 22.6755 26.4641 22.5458C26.4641 22.4624 26.6312 22.3327 26.8818 22.2493C26.7148 23.4169 27.9307 23.8061 28.5619 22.9999C28.6454 22.8331 28.5619 22.6663 28.4319 22.4531V22.4995L28.1349 22.9628C28.1349 22.9628 27.6708 22.6663 27.8008 22.6663V22.2029C27.8008 22.2029 27.5501 22.1195 27.4202 22.0361C27.4573 21.9898 27.5037 21.9898 27.5037 21.9898C28.4319 22.0732 29.1467 22.7033 29.1003 22.8701C29.1003 22.9165 29.2673 22.9165 29.4808 22.9535C29.5644 22.9535 29.5644 23.0833 29.6015 23.1203C29.8985 23.2871 30.3533 23.5003 30.5668 23.6671C31.2351 24.2972 30.4833 23.2871 30.1491 23.0369C29.8521 22.7867 30.6504 23.0369 30.6504 23.1667C30.6504 23.2964 30.2698 22.6663 30.2327 22.6663C30.0656 22.6663 28.7568 22.2493 28.7568 22.0361C28.7568 22.0361 29.6015 22.3697 29.6015 22.4161V21.9527L28.5897 21.5728L27.9586 21.6099L27.4945 21.6562C27.4945 21.6562 27.1139 21.7859 27.1603 21.6933C27.1603 21.6099 27.6615 21.3967 27.875 21.3133C28.0885 21.267 26.9468 21.3967 26.362 21.6469C25.8144 21.9435 26.7797 20.9797 27.5409 20.9797C28.172 20.9797 28.4227 21.0168 28.6733 21.1465C28.8868 21.2299 29.3509 21.3967 29.518 21.6469C29.518 21.684 29.685 21.3967 29.685 21.3967L29.6479 20.8963C29.6015 20.8129 29.5644 20.6925 29.518 20.5627C29.4808 20.7295 29.4344 20.9427 29.388 21.1095C29.2581 20.6925 29.0539 20.2755 28.8868 19.8492C28.8868 20.4793 28.5062 20.6091 28.4691 19.9789C28.1349 20.0623 27.8379 20.1457 27.5037 20.2291C27.2531 20.3125 26.9561 20.4423 26.6591 20.5257C26.7055 20.4052 26.7426 20.2291 26.789 20.0623C26.7055 20.1087 26.6219 20.1457 26.492 20.1457C26.5384 20.0253 26.5755 19.8492 26.6219 19.6824C26.2878 20.016 25.9908 20.3125 25.6566 20.6091C25.6195 20.7759 25.5267 20.9427 25.4431 21.0724C25.3967 21.1187 25.3132 21.1187 25.3132 21.1187C24.9326 21.2485 25.1925 21.5357 24.979 21.9991L24.9976 21.9898Z" fill="#24272A"/>
<path d="M34.3709 22.5736C34.538 22.657 34.835 22.6941 35.0021 22.7868C35.2527 23.0833 35.2527 23.8802 34.835 24.844C34.5008 25.6872 34.0367 25.6038 34.1203 26.0208C34.3338 27.4016 33.0714 27.2348 33.1921 27.6147C33.3591 28.078 32.4773 29.2549 32.6908 31.9422C32.8579 34.0828 32.3102 34.8427 31.8461 35.0466C31.4284 35.2597 29.1172 35.167 29.1172 35.167C29.2007 35.2041 30.5466 34.7871 31.8461 33.5361C32.0968 33.2859 29.9155 34.0365 30.2125 33.916C31.4285 33.3693 31.939 32.5724 31.939 32.6558C31.939 32.8226 29.9155 33.0728 30.3424 32.9894C30.426 32.943 31.1778 32.6094 31.9018 31.7291C31.9854 31.5994 30.5188 32.2295 30.6023 32.1461C31.447 31.2194 32.2824 30.5893 32.0318 30.719C31.4841 30.9692 30.3053 31.0897 30.5188 31.136C30.6859 31.136 32.2453 29.709 32.0689 29.6626C31.9018 29.6626 30.1754 30.4225 30.5188 30.2557C30.853 30.0889 32.83 27.9946 32.0318 28.5321C31.1871 29.0788 29.637 29.4587 30.3053 29.0788C30.9829 28.6989 32.0318 27.4386 31.9482 27.2718L30.3053 27.7352C30.3053 27.7352 32.5794 25.6316 32.4031 25.3444C32.236 25.0478 31.3542 25.6409 31.3171 25.4741C31.3171 25.3907 31.9854 24.5104 32.5794 23.7134C31.6512 24.2138 30.5559 24.9274 29.8505 25.2239C29.4328 25.3907 29.3028 25.437 29.2193 25.437C29.1358 26.0672 28.4582 26.6139 27.4928 26.6973C26.2769 26.8641 25.0516 26.234 24.7639 25.3536C24.7175 25.1868 24.7175 25.02 24.7175 24.8903C24.6804 24.9366 24.6804 24.9737 24.6804 24.9366C24.801 24.7698 24.3833 23.2594 23.1302 23.3428C22.7961 23.4262 22.4526 24.0563 22.4155 24.2231C22.2484 24.7698 22.035 25.9004 21.9978 26.5768C21.9978 26.7066 21.9143 25.6131 21.9607 25.1498C21.4966 25.6131 20.5684 25.7336 19.603 25.4C18.5078 25.02 17.8394 24.1026 18.0901 23.3891C18.0065 23.3428 17.9601 23.3057 17.923 23.2686C17.5888 22.7219 17.2918 21.925 17.2918 21.925C17.2918 21.925 17.1711 22.1381 17.2083 22.1381C17.1618 22.1381 16.8741 21.6377 16.8741 21.6377C16.8741 21.6377 16.6235 22.0547 16.5399 21.8879C16.4564 21.6006 16.2058 21.8879 16.2058 21.8879L16.2522 23.2316L16.5492 23.5281V23.732C16.5492 23.732 16.8463 24.149 16.8463 24.1119C16.8463 24.1582 16.6792 24.4455 16.7163 24.4455C16.6792 24.4455 16.8834 24.9088 16.8834 24.9088C16.8834 24.9088 16.6328 25.0756 16.6328 25.0386C16.6328 25.0849 16.1687 24.4548 16.1687 24.4548C16.1687 24.4548 16.2151 23.7783 16.2522 23.7783C16.2058 23.7783 16.0387 22.898 16.0387 22.898L15.9552 22.0176L16.2058 21.6006L17.134 21.1373C17.8023 21.684 18.0993 22.2308 18.2664 22.6478C18.3128 22.7312 18.4335 22.7775 18.5634 22.8146C19.0647 22.481 19.8629 22.4346 20.6612 22.7312C21.2924 22.9443 21.7936 23.3613 22.0442 23.7783C23.2231 21.9713 24.6061 22.9443 25.2837 23.9451C25.5807 23.732 25.952 23.5652 26.4161 23.5281C27.0473 23.4447 27.7249 23.5744 28.1797 23.8246C28.3097 23.7412 28.4303 23.6578 28.4303 23.6578C28.4303 23.6578 28.8109 23.6115 28.8944 23.5281L29.2379 23.0648L29.4421 23.4447C29.1915 23.5744 28.848 23.9914 28.6438 24.0748C28.8109 24.2416 28.9408 24.3714 29.0615 24.5752C29.3121 24.6216 29.5627 24.6216 29.8598 24.6216C30.9551 23.9914 31.7533 23.5281 32.5052 22.898L31.744 23.0277C31.5306 23.0648 32.2917 22.6941 32.4124 22.0176C32.5423 21.3875 31.1129 23.1482 31.3263 22.898C31.5398 22.6478 31.9947 21.091 31.874 21.3041C31.7069 21.5543 30.8251 22.3512 30.9551 22.1381C32.0875 19.9512 29.8226 17.8106 30.1939 18.07C30.1939 18.07 30.5281 20.8871 30.4074 20.2106C30.2775 19.5805 29.3121 17.3194 27.5114 16.0962C23.6036 16.8561 20.6983 17.6067 18.3871 18.6538C18.0901 18.8206 17.8858 18.6538 17.923 18.487C17.9601 17.5233 16.3265 14.3726 15.7324 14.3263C12.8364 14.2429 10.7293 16.4669 7.83332 17.477C14.9805 12.1486 21.246 9.24815 27.2515 6.47742C34.3152 7.90449 37.6753 7.85815 40.9148 8.65509C39.2718 8.86822 37.0441 8.86822 35.2434 9.49835L32.8486 10.6289L31.6698 11.259L32.0039 15.3271C34.6122 16.8839 34.8164 18.4314 35.4105 19.7751C35.0299 19.4786 34.4915 18.728 34.6958 18.9318C34.9464 19.145 34.6493 22.0825 34.408 22.5829L34.3709 22.5736Z" fill="#24272A"/>
<path d="M16.9218 22.5736L17.1353 22.8238L17.0982 23.9173C17.0982 23.9173 16.764 23.4169 16.764 23.3705C16.764 23.4076 16.5969 22.9906 16.5969 22.9906L16.9311 22.5736H16.9218Z" fill="#24272A"/>
<path d="M17.5528 18.2553L17.5992 18.5889L17.8499 18.9225H18.0169L17.5157 20.9333L17.2187 20.9797C17.2187 20.9797 17.3393 20.4793 17.3858 20.4793C17.3393 20.4793 16.504 21.0631 16.504 21.0631C16.504 21.0631 16.801 19.9696 16.801 19.9325C16.801 19.9789 15.9192 20.9797 15.9656 20.9797C15.9192 20.9797 15.8356 20.5997 15.8356 20.5997C15.8356 20.5997 15.0745 21.5635 15.0745 21.5264C15.0745 21.5727 16.0863 19.3024 16.0863 19.3024C16.0863 19.3024 14.5733 20.6924 14.5733 20.6461C14.5733 20.6924 15.3344 19.1727 15.3344 19.1727C15.3344 19.1727 14.4897 19.5897 14.5361 19.5897C14.4897 19.5897 15.2045 18.6259 15.2509 18.5796C15.2137 18.6259 16.1698 18.4128 16.1698 18.4128L16.7639 18.1163L17.5621 18.246L17.5528 18.2553Z" fill="#24272A"/>
<path d="M25.6642 26.5582C26.1654 27.5219 24.8195 27.2717 24.6153 27.2346C24.5318 27.1049 24.5318 26.7713 24.6617 26.6879C24.6617 26.6416 25.1258 26.1412 25.163 26.1412L24.6989 26.2246L24.8288 25.7242L24.6153 25.891V24.9643C24.4018 25.8076 24.1141 26.3543 23.3158 27.1512C23.9841 27.1512 23.8635 27.6146 23.8171 27.7814C23.1024 28.3652 22.0071 28.6246 21.84 27.8648L21.5894 26.7713L21.2552 26.6045C21.0881 26.9844 21.6358 28.6246 22.267 28.8748C22.8146 29.088 23.947 28.708 24.4575 28.3281C24.4575 28.3281 26.1376 27.6609 26.3047 27.3644C26.6388 26.901 26.0077 26.6971 25.6735 26.5674L25.6642 26.5582Z" fill="#24272A"/>
<path d="M21.5059 25.5111C18.5263 26.2246 18.5635 28.7452 18.647 29.0788C18.777 29.329 18.8605 27.105 21.1717 26.5212C21.2089 26.5212 20.5406 26.2246 21.5059 25.5204V25.5111Z" fill="#24272A"/>
<path d="M26.0452 27.7814C27.6882 27.6146 28.6071 28.3652 28.5236 28.5413C28.8206 28.9212 28.57 29.3845 28.5236 29.5513C28.2266 30.478 28.143 30.2649 27.7253 31.6085C27.4376 32.4518 28.143 29.088 27.8553 28.5505C27.5582 28.0038 26.8899 28.671 26.0545 27.7906L26.0452 27.7814Z" fill="#24272A"/>
<path d="M19.5286 28.9952C19.3616 28.9118 18.3498 29.579 18.0528 31.0524C18.684 31.9327 18.981 31.5528 18.8139 31.4323C18.684 30.7188 18.4334 30.3018 19.5286 28.9952Z" fill="#24272A"/>
<path d="M29.5354 29.4216L29.6653 30.0425L29.7024 30.5521V31.1359L29.6653 31.6456L29.5725 32.2757L29.3219 33.0727L28.9413 33.7862L28.3937 34.4071L27.8553 34.9167L27.3077 35.2967L26.8064 35.5469L25.9617 35.8805L26.89 35.3337L27.6418 34.787L28.143 34.2032L28.6071 33.536L29.1177 32.6093L29.3683 31.729L29.4982 30.8394L29.5354 30.1351V29.4216Z" fill="#24272A"/>
<path d="M23.7799 31.7288C25.0423 31.3489 26.3882 31.0616 27.3907 30.4686C27.6413 32.3126 25.033 34.7498 24.7453 34.9166C24.2812 35.2131 29.2842 30.8022 23.7799 31.7288Z" fill="#24272A"/>
<path d="M17.7655 29.3753L17.5521 29.6719L17.4685 29.8387L17.3014 30.1352L17.2179 30.4688L17.1715 30.8024L17.2179 31.1823L17.255 31.6827L17.385 32.1831L17.5985 32.7298L17.7655 33.1932L17.9326 33.5731L18.2204 33.9901L18.4803 34.2496L18.8144 34.4534L18.5638 34.3701L18.3132 34.2033L18.0533 33.9901L17.8027 33.6565L17.6356 33.36L17.5149 33.0264L17.3014 32.6465L17.1344 32.0997L17.0508 31.6827L16.9673 31.2194V30.8394L17.0508 30.5522L17.1344 30.1722L17.3014 29.922L17.4685 29.6255L17.7655 29.3753Z" fill="#24272A"/>
<path d="M16.7077 25.3443C17.506 27.4849 15.5753 28.6155 16.1601 30.9229C16.1601 30.9599 15.9559 32.4704 16.7541 33.6473C17.3018 34.4442 17.3389 34.8241 17.7659 34.9075C18.4342 34.9909 18.1465 34.9075 19.0654 35.7045C19.2325 35.8342 19.613 35.8713 19.019 35.9547C16.4571 36.3346 15.8631 33.2303 15.7424 32.8967C15.6124 32.5631 15.696 30.9692 15.9095 31.0897C16.1137 31.2194 15.4918 29.5421 15.4918 29.5421C15.6589 27.8185 16.7913 27.3552 16.7077 25.3443Z" fill="#24272A"/>
<path d="M9.14331 17.4119L8.85557 18.5054L8.51213 17.4953L9.14331 17.4119Z" fill="#24272A"/>
<path d="M8.8081 19.1356L9.10512 20.8129L8.67815 21.1928L8.8081 19.1356Z" fill="#24272A"/>
<path d="M9.02158 21.1465L8.67815 21.3225V21.9897L9.05871 21.6561L9.02158 21.1465Z" fill="#24272A"/>
<path d="M9.10536 21.9063L8.7253 22.1562V22.5726H9.10536V21.9063Z" fill="#24272A"/>
<path d="M8.7253 22.7404L9.05946 22.8238L9.10587 23.25L8.7253 23.5836V22.7404Z" fill="#24272A"/>
<path d="M8.97569 23.6668C9.14277 23.9634 9.39339 24.2599 9.56975 24.5935C9.73683 25.0105 9.98744 25.687 10.0339 25.8908C10.1174 26.104 10.4144 28.5318 10.4144 28.5318H9.99673C9.99673 28.5318 10.0803 27.9017 10.0803 27.8646C10.0803 27.9017 9.57903 28.5318 9.57903 28.5318C9.57903 28.5318 9.24487 28.6152 9.24487 28.5782C9.24487 28.6245 9.62544 27.7812 9.62544 27.7812L8.82718 28.5411C8.82718 28.5411 9.58831 27.4106 9.12421 27.5774C8.70651 27.7442 8.82718 28.5411 8.57656 28.5411H8.32595C8.15887 28.5411 8.6601 27.4106 8.87359 27.0306C8.15887 26.8175 8.24241 28.5411 7.90825 28.5411H7.32348L7.49055 26.697C7.49055 26.697 7.99179 25.1866 7.99179 25.1402C7.99179 25.1773 8.75292 23.88 8.75292 23.88C8.83646 23.7966 8.92 23.7502 9.00354 23.6668H8.97569Z" fill="#24272A"/>
<path d="M20.5415 23.0831C21.4233 23.3796 21.9338 24.0932 21.7203 24.6306C21.5068 25.131 20.625 25.3442 19.7432 25.0569C18.8614 24.7604 18.3138 24.0468 18.5273 23.5001C18.7779 22.9997 19.6597 22.7866 20.5415 23.0831Z" fill="white"/>
<path d="M26.5091 24.0006C25.5438 24.084 24.9126 24.7141 25.1632 25.3443C25.4138 25.9744 26.3791 26.4377 27.3445 26.308C28.3562 26.2246 28.941 25.6315 28.6904 25.0107C28.4862 24.3342 27.4744 23.9172 26.5091 24.0006Z" fill="white"/>
<path d="M20.6614 29.505C20.2809 29.4216 20.0302 29.3382 19.4455 29.5884C19.3155 30.2556 19.529 30.6355 19.6125 31.1823C19.6961 30.3853 20.1138 29.8757 20.6614 29.505Z" fill="#24272A"/>
<path d="M14.8242 40.7083C15.0748 40.3747 15.4554 40.2079 15.6689 40.3284C15.8359 40.4118 15.7988 40.7917 15.5389 41.1253C15.2883 41.4589 14.8706 41.6257 14.7035 41.5053C14.49 41.4219 14.5736 41.0419 14.8335 40.7083H14.8242Z" fill="#24272A"/>
<path d="M24.0687 42.4691C23.9852 42.0892 23.6046 41.7926 23.3076 41.8853C23.057 41.9224 22.8899 42.3023 23.0106 42.6822C23.0941 43.0992 23.4282 43.3958 23.7253 43.3494C24.0223 43.266 24.1894 42.8861 24.0594 42.4691H24.0687Z" fill="#24272A"/>
<path d="M31.9301 35.2967L32.9419 37.9007L32.5242 38.364L29.5354 40.2915L28.57 41.6351L27.7254 42.0521C27.7254 42.0521 26.4259 42.1819 26.4259 42.1355C26.4259 42.1726 24.6623 44.5263 24.6994 44.5263C24.6623 44.5263 23.6041 45.5735 23.6041 45.5735L25.5348 40.032L25.9989 41.5888L26.2124 39.6521L26.76 40.8753C26.76 40.8753 28.57 40.3285 28.6071 40.3285C28.5607 40.3285 30.3336 38.8644 30.3336 38.8181C30.3336 38.8644 30.2965 36.557 30.2965 36.5107C30.2965 36.557 30.8905 38.4845 30.8905 38.4845L31.0112 36.7238L31.6795 37.947C31.6795 37.947 31.3454 35.9732 31.3918 35.9732C31.3454 35.9732 31.9394 36.6033 31.9394 36.6033V35.306L31.9301 35.2967Z" fill="#24272A"/>
<path d="M16.3359 34.9167C15.7882 36.3438 15.2406 37.7709 14.6558 39.1609C15.2034 38.9477 16.0388 37.2705 17.1341 36.8905C18.183 36.4735 15.7511 37.0573 16.0017 36.9739C16.2523 36.8442 16.9299 35.8805 16.9299 35.8805L16.1688 36.0473C16.2152 35.6673 16.2523 35.2874 16.3359 34.9075V34.9167Z" fill="#24272A"/>
<path d="M14.2754 39.7447C14.3589 40.8753 14.0619 41.1718 13.5978 42.6822C13.6442 41.6351 13.7649 40.6251 14.2754 39.7447Z" fill="#24272A"/>
<path d="M19.3628 36.0935C20.4953 37.1036 20.4117 37.7337 22.8901 37.9376C25.9996 37.2611 26.9649 36.4271 28.8585 35.4171C28.1437 36.7144 27.0113 37.4743 25.6654 37.9747C24.3195 38.4751 23.3077 38.1044 23.0571 38.2249C21.08 39.0589 19.2329 37.9283 19.3628 36.0843V36.0935Z" fill="#24272A"/>
<path d="M25.4146 38.8643C26.974 38.6512 27.6423 37.1407 30.167 35.5098C27.3917 38.4473 28.6912 38.4936 27.5587 38.8643C24.8669 39.3647 25.5445 39.1608 25.4146 38.8643Z" fill="#24272A"/>
<path d="M23.8544 32.3128C23.1861 32.3128 22.592 32.0997 21.9237 32.3499C21.7102 33.1932 21.7937 33.8604 22.0908 34.5739C22.1279 33.3136 22.3414 32.6001 23.8544 32.3036V32.3128Z" fill="#24272A"/>
<path d="M15.7891 35.2505C14.3968 35.7972 13.6821 36.0938 12.4661 37.0946C12.6332 36.7146 12.5032 36.2513 12.9674 35.9177C13.6821 35.371 15.028 35.7046 15.7891 35.2412V35.2505Z" fill="#24272A"/>
<path d="M17.7654 36.0474C19.0649 36.4644 18.8143 37.4744 19.4455 37.5578C19.0649 37.4281 18.7771 37.391 18.3502 37.1779C17.9696 36.798 18.3502 36.5478 17.7561 36.0474H17.7654Z" fill="#24272A"/>
<path d="M19.7792 33.9066C19.8164 35.204 20.067 36.3808 20.8745 36.8905C21.0416 36.9276 21.2087 36.9739 21.3758 36.8905C21.6264 36.8071 21.5892 36.4735 21.9605 36.8442C22.3411 37.2612 22.7124 37.2241 22.7124 37.2241C22.7124 37.3538 23.3064 37.1407 23.6406 36.8071C24.0583 36.2604 24.8194 35.8804 24.6059 35.9638C23.3064 36.4272 21.9605 36.4272 21.58 35.204C21.4964 34.9074 21.58 36.0009 21.6171 36.0009C20.9024 36.5847 20.3176 35.2874 19.7699 33.8974L19.7792 33.9066Z" fill="#24272A"/>
<path d="M25.2937 24.9274C26.4262 26.1043 27.1873 25.8448 28.1155 25.8448C28.199 26.0116 25.6743 26.5584 25.2937 24.9274Z" fill="#24272A"/>
<path d="M18.6933 23.5002C19.6586 24.8439 20.4569 24.7141 21.3851 24.8439C21.4315 25.0107 18.8604 25.2238 18.6933 23.5002Z" fill="#24272A"/>
<path d="M29.3224 24.677C29.7395 24.8066 29.7395 24.8898 29.7395 25.1767C29.7859 25.0564 29.8693 24.8436 29.823 24.714C29.7395 24.714 29.5263 24.714 29.3224 24.6677V24.677Z" fill="#24272A"/>
<path d="M21.7189 21.86C21.9692 21.9063 22.1361 22.0266 22.3493 22.1562L22.0526 22.4523C22.0526 22.4523 21.6726 22.332 21.7189 22.369V21.8693V21.86Z" fill="white"/>
<path d="M27.7899 22.2121V22.6841L28.1329 22.9432L28.4388 22.4898C28.2349 22.3602 28.0495 22.2492 27.7899 22.2029V22.2121Z" fill="white"/>
<path d="M14.6931 13.8073C17.255 12.7972 21.0421 13.0567 23.8174 12.9733C26.4257 10.7493 29.9529 9.82261 33.313 8.94228C29.9065 10.2859 26.5464 11.7964 23.9845 13.937C22.1745 13.5571 18.3503 13.3532 14.6931 13.8073Z" fill="white"/>
<path d="M30.2134 15.3179L30.167 15.5681L29.6658 16.328C29.4523 16.328 29.2017 16.1612 28.9511 16.1612C29.1181 15.948 29.3316 15.7812 29.4987 15.6608C29.6658 15.5774 29.9628 15.3642 30.2134 15.3272V15.3179Z" fill="white"/>
<path d="M29.8322 16.1981C29.9993 16.2815 30.1664 16.4112 30.2963 16.5317C30.5098 16.1517 30.8904 16.0683 31.2153 16.0313C30.8347 15.8645 30.2963 15.9849 29.8322 16.1981Z" fill="white"/>
<path d="M18.5646 42.8028C19.0287 42.8398 19.4464 43.0066 19.5299 43.3865C19.7806 43.3031 19.9105 43.2661 19.9476 43.09C19.4835 42.673 19.0287 42.7101 18.5646 42.7935V42.8028Z" fill="white"/>
<path d="M0.909647 24.4825C0.909647 18.1997 3.36941 12.2783 7.84339 7.82107C12.3081 3.3638 18.2301 0.908133 24.5141 0.908133C37.509 0.908133 48.0721 11.4814 48.0721 24.4825C48.0721 37.4837 37.4997 48.0477 24.5141 48.0477C11.5284 48.0477 0.909647 37.4744 0.909647 24.4825ZM7.20292 7.18167C2.55258 11.815 0 17.9588 0 24.4825C0 37.9841 10.9993 48.9651 24.5233 48.9651C38.0474 48.9651 49.0003 37.9841 49.0003 24.4825C49.0003 10.981 38.0195 0 24.5233 0C17.998 0 11.8533 2.54834 7.2122 7.1724L7.20292 7.18167Z" fill="#EE7F1A"/>
<defs>
<linearGradient id="paint0_linear_140_16" x1="24.4955" y1="0.407556" x2="24.4955" y2="48.4552" gradientUnits="userSpaceOnUse">
<stop stop-color="#B2ACC9"/>
<stop offset="0.26" stop-color="#AFA9C7"/>
<stop offset="0.45" stop-color="#A5A0C0"/>
<stop offset="0.62" stop-color="#9691B5"/>
<stop offset="0.77" stop-color="#7F7DA6"/>
<stop offset="0.91" stop-color="#636293"/>
<stop offset="1" stop-color="#4D4E84"/>
</linearGradient>
</defs>
</svg>
