<svg width="43" height="43" viewBox="0 0 43 43" fill="none" xmlns="http://www.w3.org/2000/svg">
<path d="M36.6667 6.21161L36.1078 6.76869L32.9272 9.94579C35.8571 12.9819 37.3073 16.716 37.3073 21.1744C37.3073 25.6589 35.8014 29.4488 32.7601 32.4849C29.7188 35.5488 25.9794 37.0808 21.4862 37.0808C16.993 37.0808 13.2258 35.5488 10.2124 32.4849C7.17105 29.4209 5.66519 25.6607 5.66519 21.1744C5.66519 16.6603 7.17105 12.8426 10.2124 9.77866L10.2402 9.75081C8.98502 8.52523 7.72985 7.29966 6.47294 6.04449L6.4451 6.07234C2.3436 10.1965 0.278911 15.2119 0.278911 21.1448C0.278911 27.0238 2.31575 32.0392 6.4451 36.1912C10.5483 40.3136 15.5707 42.4044 21.5141 42.4044C27.4574 42.4044 32.4799 40.3414 36.611 36.1895C40.7403 32.0671 42.805 27.0516 42.805 21.1448C42.7493 15.2955 40.7125 10.3079 36.6667 6.21161Z" fill="#F49C55"/>
<path d="M21.4859 42.7108C15.4868 42.7108 10.3512 40.5921 6.22189 36.414C2.09254 32.2359 0 27.1073 0 21.1744C0 15.1841 2.09254 10.0572 6.22189 5.90696L6.44473 5.71024L6.64144 5.87736C7.89661 7.10468 9.15179 8.35811 10.407 9.58368L10.6037 9.77866L10.3791 10.0015C7.42135 13.0097 5.91551 16.7718 5.91551 21.2023C5.91551 25.6032 7.42135 29.3374 10.3791 32.3178C13.3386 35.2999 17.0762 36.8318 21.458 36.8318C25.8676 36.8318 29.5775 35.3277 32.5352 32.3178C35.4947 29.3374 37.0006 25.5754 37.0006 21.2023C37.0006 16.8553 35.5504 13.149 32.6762 10.1686L32.4795 9.97364L36.6384 5.82166L36.8334 6.01663C40.9349 10.1408 42.9996 15.2676 42.9996 21.1744C42.9996 27.1073 40.8792 32.2342 36.7498 36.414C32.5926 40.5921 27.4571 42.7108 21.4859 42.7108ZM6.44473 6.4623C2.51036 10.475 0.529227 15.4348 0.529227 21.1727C0.529227 26.9698 2.56607 31.9556 6.6136 36.0223C10.6315 40.0907 15.654 42.1537 21.4859 42.1537C27.3178 42.1537 32.3402 40.0908 36.386 36.0241C40.4335 31.9557 42.4982 26.968 42.4982 21.1744C42.4982 15.4905 40.545 10.5864 36.6941 6.60331L33.3447 9.94579C36.191 12.9819 37.6151 16.77 37.6151 21.1744C37.6151 25.7146 36.0517 29.5881 32.9826 32.6816C29.9134 35.7734 26.0626 37.3611 21.5137 37.3611C16.9648 37.3611 13.0862 35.8012 10.0448 32.6799C6.97569 29.5881 5.41239 25.7164 5.41239 21.1727C5.41239 16.6882 6.91998 12.8426 9.84987 9.77866C8.69439 8.69438 7.55915 7.58874 6.44473 6.4623Z" fill="#F49C55"/>
<path d="M23.5508 0.223079H19.4494V15.602H23.5508V0.223079Z" fill="#F49C55"/>
<path d="M23.7452 15.7967H19.2816V0H23.7452V15.7967ZM19.6437 15.3789H23.3831V0.417813H19.6437V15.3789Z" fill="#F49C55"/>
</svg>
