<svg width="410" height="68" viewBox="0 0 410 68" fill="none" xmlns="http://www.w3.org/2000/svg">
<path d="M367.203 29.024V37.9954H364.887V31.1949H361.314V37.9954H358.998V29.024H367.202H367.203Z" fill="white"/>
<path d="M374.545 28.7726C375.754 28.7726 376.786 29.2303 377.642 30.1451C378.497 31.06 378.925 32.1817 378.925 33.5092C378.925 34.8366 378.497 35.9583 377.642 36.8732C376.786 37.7881 375.754 38.2458 374.545 38.2458C373.336 38.2458 372.318 37.809 371.636 36.9361V41.5835H369.32V29.0235H371.636V30.0823C372.318 29.2093 373.288 28.7726 374.545 28.7726ZM372.337 35.3309C372.803 35.8036 373.396 36.0395 374.114 36.0395C374.832 36.0395 375.428 35.8036 375.9 35.3309C376.373 34.8587 376.609 34.2516 376.609 33.5097C376.609 32.7678 376.373 32.1613 375.9 31.6886C375.427 31.2164 374.832 30.98 374.114 30.98C373.396 30.98 372.804 31.2164 372.337 31.6886C371.87 32.1613 371.636 32.7684 371.636 33.5097C371.636 34.2511 371.87 34.8587 372.337 35.3309Z" fill="white"/>
<path d="M387.38 29.0239H389.696V37.9954H387.38V36.9365C386.686 37.8101 385.711 38.2463 384.454 38.2463C383.197 38.2463 382.231 37.7886 381.375 36.8737C380.52 35.9588 380.092 34.8371 380.092 33.5097C380.092 32.1822 380.52 31.0605 381.375 30.1457C382.231 29.2308 383.257 28.7731 384.454 28.7731C385.711 28.7731 386.686 29.2098 387.38 30.0828V29.0239ZM383.108 35.3308C383.574 35.8036 384.167 36.0394 384.885 36.0394C385.603 36.0394 386.198 35.8036 386.671 35.3308C387.144 34.8586 387.38 34.2516 387.38 33.5097C387.38 32.7678 387.144 32.1613 386.671 31.6885C386.198 31.2163 385.603 30.9799 384.885 30.9799C384.167 30.9799 383.575 31.2163 383.108 31.6885C382.641 32.1613 382.407 32.7683 382.407 33.5097C382.407 34.251 382.641 34.8586 383.108 35.3308Z" fill="white"/>
<path d="M398.26 33.4017C399.097 33.8084 399.516 34.4901 399.516 35.4475C399.516 36.2012 399.256 36.8141 398.735 37.2869C398.215 37.7596 397.475 37.9954 396.518 37.9954H391.797V29.024H396.159C397.105 29.024 397.838 29.2572 398.359 29.724C398.879 30.1903 399.14 30.8006 399.14 31.5543C399.14 32.308 398.846 32.9601 398.26 33.4023V33.4017ZM395.944 30.9257H393.969V32.5406H395.944C396.602 32.5406 396.931 32.2714 396.931 31.7332C396.931 31.1949 396.602 30.9257 395.944 30.9257ZM396.249 36.0395C396.919 36.0395 397.254 35.7526 397.254 35.1783C397.254 34.9269 397.164 34.7297 396.985 34.5863C396.805 34.4428 396.56 34.3709 396.249 34.3709H393.969V36.0395H396.249Z" fill="white"/>
<path d="M408.617 36.8737C407.695 37.7886 406.57 38.2463 405.242 38.2463C403.914 38.2463 402.792 37.7886 401.876 36.8737C400.961 35.9588 400.503 34.8371 400.503 33.5097C400.503 32.1822 400.961 31.0605 401.876 30.1457C402.792 29.2308 403.914 28.7731 405.242 28.7731C406.57 28.7731 407.695 29.2308 408.617 30.1457C409.538 31.0605 409.999 32.1822 409.999 33.5097C409.999 34.8371 409.539 35.9588 408.617 36.8737ZM403.51 35.2857C403.97 35.752 404.548 35.9857 405.242 35.9857C405.936 35.9857 406.516 35.7525 406.983 35.2857C407.45 34.8194 407.684 34.2269 407.684 33.5091C407.684 32.7914 407.451 32.1994 406.983 31.7326C406.517 31.2663 405.936 31.0326 405.242 31.0326C404.548 31.0326 403.97 31.2658 403.51 31.7326C403.049 32.1989 402.818 32.7914 402.818 33.5091C402.818 34.2269 403.049 34.8189 403.51 35.2857Z" fill="white"/>
<path d="M260.896 38.7304C254.841 32.6787 244.988 32.6781 238.931 38.7304L235 34.8012C243.223 26.5818 256.604 26.5829 264.827 34.8012L260.896 38.7304H260.896Z" fill="white"/>
<path d="M260.186 48.0246C254.785 48.0246 249.384 45.9698 245.272 41.8606L249.204 37.9315C255.259 43.9837 265.113 43.9842 271.169 37.9315L275.1 41.8606C270.988 45.9703 265.587 48.0246 260.187 48.0246H260.186Z" fill="white"/>
<path d="M257.066 26.6479C260.641 26.6479 263.54 23.7509 263.54 20.1772C263.54 16.6035 260.641 13.7065 257.066 13.7065C253.49 13.7065 250.592 16.6035 250.592 20.1772C250.592 23.7509 253.49 26.6479 257.066 26.6479Z" fill="white"/>
<path d="M316.888 23.6841H315.571C307.477 23.6841 300.407 30.655 300.407 39.107V40.5086H298.812V45.1823H319.188V40.5086H316.888V23.6841ZM310.02 30.0931C310.798 29.5317 311.506 29.1954 312.179 28.9268V40.5086H305.603C305.711 35.2074 307.126 32.1769 310.02 30.0931H310.02Z" fill="white"/>
<path d="M291.016 23.7529V33.0719C289.727 33.4028 288.52 33.5603 287.486 33.6006C287.475 33.6006 287.465 33.6006 287.455 33.6006C286.77 33.5737 286.009 33.4958 285.198 33.3497C284.46 33.217 283.925 32.5691 283.925 31.8197V23.6938L282.739 23.6841H279.217V32.5519C279.217 34.3199 280.102 35.7886 281.418 36.7991C282.88 37.9219 285.101 38.2609 287.022 38.2609C288.546 38.2609 289.985 38.0476 291.017 37.8429V45.1323H295.897V23.7937L291.016 23.7529Z" fill="white"/>
<path d="M335.24 34.4316C335.446 34.2726 335.651 34.1109 335.849 33.9363C338.596 31.5237 340.043 28.1591 340.155 23.9377H335.351C335.253 26.7355 334.387 28.8285 332.697 30.3208C331.056 31.7702 328.883 32.4439 326.983 32.7474V23.9377H322.104V45.1323H326.983V37.585C328.171 37.433 329.484 37.1714 330.81 36.733L335.904 45.1323H341.729L335.241 34.4316H335.24Z" fill="white"/>
<path d="M350.912 21.9774H350.374V46.4834H350.912V21.9774Z" fill="white"/>
<path d="M23.3327 10.5898C35.9219 10.5898 46.1964 20.889 46.1964 33.5723C46.1964 46.2557 35.9307 56.5548 23.3327 56.5548C10.7347 56.5548 0.433594 46.2557 0.433594 33.5723C0.433594 20.889 10.7435 10.5898 23.3327 10.5898Z" fill="url(#paint0_linear_140_108)"/>
<path d="M4.12509 46.2291C5.42377 45.4846 6.51041 45.3162 6.51041 45.3162L10.0531 45.2364L11.9525 45.6087L12.9596 44.7578L15.9457 43.5081L30.2223 43.5967L31.3973 46.6102L33.1642 47.4345L36.0796 48.2676L41.4156 47.7181C29.595 62.9186 10.1679 56.4218 4.10742 46.2291V46.2114L4.12509 46.2291Z" fill="white"/>
<path d="M16.9885 28.4938L17.3861 27.9531C17.3861 27.9531 24.33 25.3916 25.9467 25.5334L27.2807 26.145L29.8251 28.2545L30.9029 30.4614L31.3004 35.3185L30.8587 38.0395L30.8145 39.3336L30.6997 41.7266L30.417 43.0916L27.696 43.8716L27.3514 44.1906L26.2294 45.1745L23.5437 46.4153L21.2733 46.6989L19.9127 46.3444L18.9409 46.2558L17.9957 45.9544L16.8737 44.4831L15.8224 43.1536L15.2128 41.2303L15.2569 40.0338L15.0449 38.5802L15.6987 36.3732L15.999 35.5312L15.8842 34.5208L15.7694 34.0776L15.5308 32.9077L15.2746 32.0834L15.2039 31.2414L15.4601 30.8691L16.0697 30.6564L16.3789 30.2753L16.9797 28.4938H16.9885Z" fill="#E9D6BD"/>
<path d="M10.9454 45.6443C10.0266 46.3268 9.50537 47.0092 8.22437 48.4983C7.7473 49.101 7.73847 49.1098 6.94336 49.9962L7.37625 50.4305C7.6943 49.8278 7.73847 49.8189 8.22437 49.0567C9.01947 47.8158 9.98243 46.5306 10.9454 45.6443Z" fill="#24272A"/>
<path d="M11.3085 45.5643C10.3101 46.5304 9.74474 47.4522 8.2252 50.0226C7.98667 50.4657 8.04851 50.2885 7.73047 50.8114L8.18986 51.2723C8.31355 50.9887 8.06618 51.547 8.2252 51.1482C9.02031 49.3844 10.2218 46.9293 11.3085 45.5643Z" fill="#24272A"/>
<path d="M7.46531 46.2025C7.70385 45.9987 7.94238 45.8391 8.22508 45.7239C8.74632 45.4846 9.42658 45.3251 10.1863 45.2807C9.70928 44.9971 9.06436 44.8376 8.22508 44.8021H7.78336C6.62603 44.9617 5.82209 45.2453 4.33789 46.0075L4.49691 46.1316C6.58186 45.6885 7.34163 45.7328 7.45648 46.2114L7.46531 46.2025Z" fill="#24272A"/>
<path d="M8.56934 51.4318L9.08174 51.8927C9.64715 49.8896 10.5483 47.3724 11.7056 45.4846C10.7073 46.7697 10.3274 47.4522 8.56934 51.4318Z" fill="#24272A"/>
<path d="M39.3486 47.6295L37.882 47.7359C37.4845 47.7359 37.0693 47.5675 36.3537 47.6118C33.7122 47.9309 34.5161 47.0888 31.3887 46.5305C31.4682 46.7343 31.6272 47.0888 31.7067 47.3282C35.6292 47.7713 34.2687 50.3948 37.7495 49.2338L39.2337 48.312L41.6632 47.6472H39.3397L39.3486 47.6295Z" fill="#24272A"/>
<path d="M28.7393 56.2624L30.0644 55.8812C31.0627 53.0273 31.0716 50.5012 31.3896 47.0889C30.674 50.4569 29.7376 53.8161 28.7393 56.2624Z" fill="#24272A"/>
<path d="M20.5049 48.4538C20.1869 47.9752 19.6303 47.2129 19.4624 46.9648C19.2592 46.7255 16.3792 49.4199 16.2643 49.2958C16.1848 49.1806 13.5875 51.5028 13.0662 51.7066C12.545 51.8573 13.879 51.7687 14.0822 51.5914C14.0822 51.7509 14.1441 52.1498 14.1441 52.1498L16.7061 50.7051C16.5912 50.7848 16.8297 51.7066 16.8297 51.7066C16.229 53.1513 15.1954 54.0731 14.5063 54.596L14.091 54.9328L17.6602 56.2092L18.2256 56.3155C18.3493 55.2342 18.5436 51.5825 18.7468 51.8573C18.9854 52.1409 20.231 51.2103 20.0632 51.095C20.6286 51.5382 21.1852 51.9814 21.7417 52.3802C21.3442 51.0507 20.9025 49.7744 20.4961 48.4449L20.5049 48.4538Z" fill="#24272A"/>
<path d="M31.2299 47.1243C30.4702 48.9324 29.6309 50.8203 28.8269 52.6639C28.023 54.472 27.6961 55.1456 26.9717 56.5903L28.1908 56.3421C28.5089 55.5799 28.4647 55.6331 28.8269 54.7911C29.7457 52.3005 30.6292 49.5706 31.2299 47.1243Z" fill="#24272A"/>
<path d="M31.1146 46.8495C30.6729 47.4876 30.3107 48.0549 29.8778 48.7728C29.6392 49.5351 29.0738 50.1378 28.8353 50.9C28.7558 51.0241 28.7116 51.1393 28.7116 51.2989C27.5101 53.1513 26.7327 54.9682 25.7344 56.7764L26.6002 56.67C27.4041 54.986 27.9165 53.9933 28.8353 52.0256C29.6392 50.2619 30.399 48.4892 31.1146 46.8495Z" fill="#24272A"/>
<path d="M19.1084 38.9348C19.3911 38.9348 19.6738 38.9348 19.9477 38.9791C20.2657 39.1741 20.6279 39.3425 20.9106 39.5818C21.2287 39.7856 21.7146 39.6615 21.8736 39.9009C21.9973 40.1402 19.6385 39.8211 19.3911 39.4577C19.3116 39.2982 19.1879 39.0943 19.1084 38.9348Z" fill="#24272A"/>
<path d="M25.2307 38.1813C26.3527 37.942 25.8315 38.784 25.8315 38.8638C25.3102 38.9081 24.8685 39.307 24.6653 39.4222C24.5063 39.502 23.9055 39.5463 23.8702 39.502C23.8702 39.4222 23.2695 39.821 23.4285 39.8654C23.5875 39.9008 22.1916 39.9451 21.8648 39.9451C21.5025 39.9097 23.7465 39.0233 23.7465 39.0233C23.9497 38.7397 24.8243 38.465 25.2307 38.1813Z" fill="#24272A"/>
<path d="M28.3498 29.903C28.553 30.5855 28.4735 30.5057 28.1908 30.9843C28.1466 31.0287 28.394 30.9843 28.4735 31.1439C28.5088 31.1882 28.9947 30.5855 28.3498 29.903Z" fill="#24272A"/>
<path d="M20.6279 27.5807H21.3877L21.7057 27.6162L22.1475 27.6605L22.5539 27.8201L22.9514 28.0239L23.2695 28.2632L23.5875 28.0239L23.9939 27.7757L24.3914 27.6162L24.789 27.5807H25.1512L25.911 27.6162H25.107L24.8332 27.6605L24.5858 27.696L24.2678 27.7757L23.9055 27.9353L23.667 28.1391L23.4285 28.343L23.3048 28.5823L22.9868 28.2987L22.704 28.0948L22.386 27.8998L22.1121 27.7757L21.8648 27.696L21.5114 27.6605L21.1845 27.6162L20.6279 27.5807Z" fill="#24272A"/>
<path d="M22.0693 27.1731L22.7938 27.377L23.1118 27.4213L23.3945 27.4567L23.6684 27.377L24.3928 27.1731L23.5535 27.3415H23.2267L22.9086 27.2972L22.6347 27.2529L22.0693 27.1731Z" fill="#24272A"/>
<path d="M22.0685 31.1528L22.2717 30.0271H21.989V29.1408L21.5914 29.3447L21.3882 28.6976C21.3882 28.6976 21.026 29.256 21.0702 29.256C21.0348 29.256 20.5489 28.7331 20.5931 28.7331C20.5578 28.7331 20.5578 29.1319 20.5578 29.1319L20.0807 28.8129L20.1249 29.2117L19.5241 29.0522L19.5595 29.3712L18.8439 29.3269L18.9234 29.6903C18.9234 29.6903 18.5258 29.7701 18.3226 29.6903C18.1636 29.6105 17.5629 30.8514 17.8014 30.7362C18.1636 30.1335 18.7555 30.0183 18.5965 30.2133C18.3933 30.4171 18.2343 30.6919 18.4375 30.9755C18.2343 30.6919 19.3563 30.6564 19.3563 30.6564L19.1531 30.3728C19.1531 30.3728 19.7538 30.3285 19.7096 30.2576C19.2326 29.8587 20.2662 29.8942 20.5931 30.098C20.9111 30.3373 21.1938 30.0537 21.5914 30.4969L22.0685 31.1439V31.1528Z" fill="#24272A"/>
<path d="M18.2696 31.2325C18.835 31.0286 19.5859 30.7095 19.9923 30.6741C20.434 30.7538 20.9906 30.8336 21.3087 31.1172L21.8652 31.5958C21.9447 31.6756 21.9094 31.9592 21.7857 31.9947C21.6709 32.0302 21.503 31.9592 21.503 31.9592L21.4677 31.6756C21.1055 32.7569 19.5064 32.234 19.8245 31.0375L19.6213 31.2413L19.2237 31.2059L19.1 31.4895C19.1 31.5693 18.8262 31.33 18.8615 31.3654C18.8262 31.33 18.3049 31.7643 18.2607 31.6845C18.2607 31.6047 18.9763 31.2413 18.2607 31.2413L18.2696 31.2325Z" fill="#24272A"/>
<path d="M23.7924 31.2326C23.5539 31.3921 23.2712 31.596 23.0768 31.6758C22.8736 31.7998 23.6776 31.6758 23.7129 31.6758C23.6687 31.6758 23.0768 32.3228 23.0768 32.3228C23.0768 32.3228 23.6334 32.0835 23.6334 32.0391C23.6334 32.0835 23.7924 32.1632 23.7924 32.1632L23.4744 32.8103L24.1105 32.4114L24.5875 32.6064C24.5875 32.6064 24.826 32.243 24.7907 32.2873C24.826 32.243 25.1883 32.2075 25.1883 32.2873C25.1883 32.2075 25.2324 31.8885 25.1883 31.7644C25.1883 31.6846 25.3473 31.5605 25.5858 31.4808C25.4268 32.5975 26.5841 32.9698 27.1849 32.1987C27.2644 32.0391 27.1849 31.8796 27.0612 31.6758V31.7201L26.7785 32.1632C26.7785 32.1632 26.3368 31.8796 26.4604 31.8796V31.4364C26.4604 31.4364 26.2219 31.3567 26.0982 31.2769C26.1336 31.2326 26.1777 31.2326 26.1777 31.2326C27.0612 31.3124 27.7414 31.9151 27.6973 32.0746C27.6973 32.1189 27.8563 32.1189 28.0595 32.1544C28.139 32.1544 28.139 32.2785 28.1743 32.3139C28.457 32.4734 28.8899 32.6773 29.0931 32.8368C29.7292 33.4395 29.0136 32.4734 28.6956 32.2341C28.4129 31.9948 29.1726 32.2341 29.1726 32.3582C29.1726 32.4823 28.8104 31.8796 28.7751 31.8796C28.6161 31.8796 27.3704 31.4808 27.3704 31.2769C27.3704 31.2769 28.1743 31.596 28.1743 31.6403V31.1971L27.2114 30.8337L26.6106 30.8692L26.1689 30.9135C26.1689 30.9135 25.8067 31.0376 25.8509 30.949C25.8509 30.8692 26.3279 30.6653 26.5311 30.5856C26.7343 30.5413 25.6477 30.6653 25.0911 30.9046C24.5698 31.1883 25.4886 30.2665 26.2131 30.2665C26.8138 30.2665 27.0523 30.3019 27.2909 30.426C27.4941 30.5058 27.9358 30.6653 28.0948 30.9046C28.0948 30.9401 28.2538 30.6653 28.2538 30.6653L28.2185 30.1867C28.1743 30.107 28.139 29.9917 28.0948 29.8676C28.0595 30.0272 28.0153 30.231 27.9711 30.3906C27.8475 29.9917 27.6531 29.5929 27.4941 29.1852C27.4941 29.7879 27.1319 29.912 27.0965 29.3093C26.7785 29.389 26.4958 29.4688 26.1777 29.5486C25.9392 29.6283 25.6565 29.7524 25.3738 29.8322C25.418 29.717 25.4533 29.5486 25.4975 29.389C25.418 29.4333 25.3384 29.4688 25.2148 29.4688C25.2589 29.3536 25.2943 29.1852 25.3384 29.0256C25.0204 29.3447 24.7377 29.6283 24.4197 29.912C24.3843 30.0715 24.296 30.231 24.2165 30.3551C24.1723 30.3994 24.0928 30.3994 24.0928 30.3994C23.7306 30.5235 23.9779 30.7983 23.7747 31.2415L23.7924 31.2326Z" fill="#24272A"/>
<path d="M32.714 31.7909C32.873 31.8707 33.1557 31.9062 33.3147 31.9948C33.5532 32.2784 33.5532 33.0407 33.1557 33.9625C32.8376 34.769 32.3959 34.6892 32.4754 35.0881C32.6786 36.4087 31.4771 36.2492 31.592 36.6126C31.751 37.0557 30.9117 38.1814 31.1149 40.7517C31.2739 42.7991 30.7527 43.5259 30.311 43.7209C29.9134 43.9248 27.7136 43.8361 27.7136 43.8361C27.7931 43.8716 29.0741 43.4727 30.311 42.2762C30.5495 42.0369 28.4734 42.7548 28.7561 42.6396C29.9134 42.1167 30.3993 41.3544 30.3993 41.4342C30.3993 41.5937 28.4734 41.833 28.8798 41.7533C28.9593 41.7089 29.6749 41.3899 30.364 40.5479C30.4435 40.4238 29.0476 41.0265 29.1271 40.9467C29.9311 40.0604 30.7262 39.4577 30.4877 39.5818C29.9664 39.8211 28.8444 39.9363 29.0476 39.9806C29.2067 39.9806 30.6909 38.6157 30.523 38.5714C30.364 38.5714 28.7208 39.2981 29.0476 39.1386C29.3657 38.9791 31.2474 36.976 30.4877 37.49C29.6837 38.013 28.2084 38.3764 28.8444 38.013C29.4894 37.6496 30.4877 36.4442 30.4081 36.2846L28.8444 36.7278C28.8444 36.7278 31.0089 34.7158 30.841 34.4411C30.682 34.1574 29.8427 34.7247 29.8074 34.5652C29.8074 34.4854 30.4435 33.6434 31.0089 32.8811C30.1254 33.3597 29.083 34.0422 28.4116 34.3258C28.014 34.4854 27.8903 34.5297 27.8108 34.5297C27.7313 35.1324 27.0864 35.6553 26.1676 35.7351C25.0103 35.8946 23.8441 35.2919 23.5702 34.4499C23.5261 34.2904 23.5261 34.1309 23.5261 34.0068C23.4907 34.0511 23.4907 34.0865 23.4907 34.0511C23.6056 33.8915 23.208 32.4468 22.0153 32.5266C21.6973 32.6064 21.3704 33.2091 21.3351 33.3686C21.1761 33.8915 20.9729 34.9729 20.9375 35.6199C20.9375 35.744 20.858 34.6981 20.9022 34.2549C20.4605 34.6981 19.577 34.8133 18.6582 34.4942C17.6158 34.1309 16.9797 33.2534 17.2182 32.5709C17.1387 32.5266 17.0945 32.4911 17.0592 32.4557C16.7411 31.9328 16.4584 31.1705 16.4584 31.1705C16.4584 31.1705 16.3436 31.3744 16.3789 31.3744C16.3348 31.3744 16.0609 30.8958 16.0609 30.8958C16.0609 30.8958 15.8223 31.2946 15.7428 31.1351C15.6633 30.8603 15.4248 31.1351 15.4248 31.1351L15.469 32.4202L15.7517 32.7039V32.8989C15.7517 32.8989 16.0344 33.2977 16.0344 33.2623C16.0344 33.3066 15.8754 33.5813 15.9107 33.5813C15.8754 33.5813 16.0697 34.0245 16.0697 34.0245C16.0697 34.0245 15.8312 34.184 15.8312 34.1486C15.8312 34.1929 15.3895 33.5902 15.3895 33.5902C15.3895 33.5902 15.4336 32.9432 15.469 32.9432C15.4248 32.9432 15.2658 32.1012 15.2658 32.1012L15.1863 31.2592L15.4248 30.8603L16.3082 30.4171C16.9443 30.9401 17.227 31.463 17.3861 31.8619C17.4302 31.9416 17.5451 31.9859 17.6688 32.0214C18.1458 31.7023 18.9056 31.658 19.6654 31.9416C20.2661 32.1455 20.7432 32.5443 20.9817 32.9432C22.1037 31.2148 23.42 32.1455 24.065 33.1027C24.3477 32.8989 24.701 32.7393 25.1428 32.7039C25.7435 32.6241 26.3884 32.7482 26.8213 32.9875C26.945 32.9077 27.0599 32.828 27.0599 32.828C27.0599 32.828 27.4221 32.7836 27.5016 32.7039L27.8285 32.2607L28.0228 32.6241C27.7843 32.7482 27.4574 33.147 27.2631 33.2268C27.4221 33.3863 27.5458 33.5104 27.6606 33.7054C27.8991 33.7497 28.1377 33.7497 28.4204 33.7497C29.4629 33.147 30.2226 32.7039 30.9382 32.1012L30.2138 32.2253C30.0106 32.2607 30.735 31.9062 30.8499 31.2592C30.9736 30.6565 29.613 32.3405 29.8162 32.1012C30.0194 31.8619 30.4523 30.3728 30.3375 30.5767C30.1785 30.816 29.3392 31.5782 29.4629 31.3744C30.5407 29.2826 28.385 27.2352 28.7384 27.4834C28.7384 27.4834 29.0565 30.1778 28.9416 29.5308C28.8179 28.9281 27.8991 26.7655 26.1852 25.5955C22.4659 26.3223 19.7007 27.0402 17.5009 28.0418C17.2182 28.2013 17.0238 28.0418 17.0592 27.8822C17.0945 26.9605 15.5396 23.947 14.9742 23.9026C12.2179 23.8229 10.2124 25.9501 7.45605 26.9161C14.2586 21.8198 20.2219 19.0456 25.9379 16.3954C32.661 17.7604 35.8591 17.7161 38.9423 18.4783C37.3786 18.6822 35.2583 18.6822 33.5444 19.2849L31.2651 20.3662L30.1431 20.9689L30.4612 24.8599C32.9437 26.3489 33.138 27.8291 33.7034 29.1142C33.3412 28.8306 32.8288 28.1127 33.0232 28.3077C33.2617 28.5115 32.979 31.3212 32.7493 31.7998L32.714 31.7909Z" fill="#24272A"/>
<path d="M16.1061 31.7909L16.3093 32.0302L16.2739 33.0761C16.2739 33.0761 15.9559 32.5975 15.9559 32.5531C15.9559 32.5886 15.7969 32.1897 15.7969 32.1897L16.1149 31.7909H16.1061Z" fill="#24272A"/>
<path d="M16.7063 27.6605L16.7505 27.9796L16.989 28.2986H17.148L16.671 30.222L16.3882 30.2663C16.3882 30.2663 16.5031 29.7877 16.5473 29.7877C16.5031 29.7877 15.708 30.346 15.708 30.346C15.708 30.346 15.9907 29.3002 15.9907 29.2647C15.9907 29.309 15.1514 30.2663 15.1956 30.2663C15.1514 30.2663 15.0719 29.9029 15.0719 29.9029C15.0719 29.9029 14.3475 30.8247 14.3475 30.7892C14.3475 30.8335 15.3104 28.662 15.3104 28.662C15.3104 28.662 13.8704 29.9915 13.8704 29.9472C13.8704 29.9915 14.5948 28.5379 14.5948 28.5379C14.5948 28.5379 13.7909 28.9368 13.8351 28.9368C13.7909 28.9368 14.4712 28.015 14.5153 27.9707C14.48 28.015 15.3899 27.8112 15.3899 27.8112L15.9554 27.5275L16.7151 27.6516L16.7063 27.6605Z" fill="#24272A"/>
<path d="M24.4275 35.6021C24.9045 36.5238 23.6235 36.2845 23.4292 36.2491C23.3497 36.125 23.3497 35.8059 23.4733 35.7261C23.4733 35.6818 23.9151 35.2032 23.9504 35.2032L23.5087 35.283L23.6324 34.8044L23.4292 34.9639V34.0776C23.226 34.8841 22.9521 35.4071 22.1923 36.1693C22.8284 36.1693 22.7136 36.6125 22.6694 36.772C21.9891 37.3304 20.9467 37.5786 20.7876 36.8518L20.5491 35.8059L20.2311 35.6464C20.072 36.0098 20.5933 37.5786 21.194 37.8179C21.7153 38.0217 22.7931 37.6583 23.279 37.2949C23.279 37.2949 24.878 36.6568 25.0371 36.3732C25.3551 35.93 24.7544 35.735 24.4363 35.6109L24.4275 35.6021Z" fill="#24272A"/>
<path d="M20.4689 34.6005C17.633 35.283 17.6684 37.6938 17.7479 38.0129C17.8716 38.2522 17.9511 36.125 20.1509 35.5666C20.1862 35.5666 19.5501 35.283 20.4689 34.6094V34.6005Z" fill="#24272A"/>
<path d="M24.7891 36.7721C26.3528 36.6125 27.2274 37.3304 27.1479 37.4988C27.4306 37.8622 27.1921 38.3054 27.1479 38.4649C26.8652 39.3513 26.7857 39.1474 26.3881 40.4326C26.1142 41.2391 26.7857 38.0218 26.5118 37.5077C26.2291 36.9848 25.593 37.6229 24.7979 36.7809L24.7891 36.7721Z" fill="#24272A"/>
<path d="M18.5873 37.933C18.4283 37.8533 17.4653 38.4914 17.1826 39.9007C17.7834 40.7427 18.0661 40.3793 17.907 40.2641C17.7834 39.5816 17.5448 39.1828 18.5873 37.933Z" fill="#24272A"/>
<path d="M28.1113 38.3408L28.2349 38.9347L28.2703 39.4221V39.9805L28.2349 40.468L28.1466 41.0707L27.9081 41.833L27.5458 42.5154L27.0246 43.1093L26.5122 43.5967L25.991 43.9601L25.5139 44.1994L24.71 44.5185L25.5934 43.9956L26.309 43.4727L26.7861 42.9143L27.2278 42.2761L27.7137 41.3898L27.9522 40.5478L28.0759 39.6969L28.1113 39.0233V38.3408Z" fill="#24272A"/>
<path d="M22.6338 40.5478C23.8353 40.1844 25.1163 39.9096 26.0704 39.3423C26.309 41.1061 23.8265 43.4372 23.5526 43.5967C23.1109 43.8803 27.8727 39.6614 22.6338 40.5478Z" fill="#24272A"/>
<path d="M16.9092 38.2965L16.706 38.5801L16.6265 38.7397L16.4675 39.0233L16.3879 39.3424L16.3438 39.6614L16.3879 40.0248L16.4233 40.5035L16.547 40.9821L16.7502 41.505L16.9092 41.9482L17.0682 42.3116L17.3421 42.7104L17.5894 42.9586L17.9075 43.1536L17.669 43.0738L17.4304 42.9143L17.1831 42.7104L16.9445 42.3913L16.7855 42.1077L16.6707 41.7886L16.4675 41.4252L16.3084 40.9023L16.2289 40.5035L16.1494 40.0603V39.6969L16.2289 39.4221L16.3084 39.0587L16.4675 38.8194L16.6265 38.5358L16.9092 38.2965Z" fill="#24272A"/>
<path d="M15.9024 34.441C16.6622 36.4884 14.8246 37.5697 15.3812 39.7767C15.3812 39.8121 15.1868 41.2568 15.9466 42.3825C16.4678 43.1447 16.5032 43.5081 16.9096 43.5879C17.5457 43.6676 17.2718 43.5879 18.1464 44.3501C18.3054 44.4742 18.6676 44.5097 18.1022 44.5894C15.6639 44.9528 15.0985 41.9836 14.9836 41.6645C14.86 41.3455 14.9395 39.821 15.1427 39.9362C15.337 40.0603 14.7451 38.456 14.7451 38.456C14.9041 36.8075 15.9819 36.3643 15.9024 34.441Z" fill="#24272A"/>
<path d="M8.70231 26.8541L8.42844 27.8999L8.10156 26.9338L8.70231 26.8541Z" fill="#24272A"/>
<path d="M8.38345 28.5027L8.66615 30.1069L8.25977 30.4703L8.38345 28.5027Z" fill="#24272A"/>
<path d="M8.58664 30.426L8.25977 30.5944V31.2325L8.62198 30.9134L8.58664 30.426Z" fill="#24272A"/>
<path d="M8.6669 31.1528L8.30469 31.3921V31.7909H8.6669V31.1528Z" fill="#24272A"/>
<path d="M8.30469 31.9504L8.62273 32.0302L8.6669 32.4379L8.30469 32.757V31.9504Z" fill="#24272A"/>
<path d="M8.54325 32.8367C8.70227 33.1204 8.9408 33.404 9.10866 33.7231C9.26768 34.1219 9.50621 34.7689 9.55039 34.9639C9.6299 35.1678 9.9126 37.4899 9.9126 37.4899H9.51505C9.51505 37.4899 9.59456 36.8872 9.59456 36.8518C9.59456 36.8872 9.11749 37.4899 9.11749 37.4899C9.11749 37.4899 8.79945 37.5697 8.79945 37.5343C8.79945 37.5786 9.16167 36.772 9.16167 36.772L8.4019 37.4988C8.4019 37.4988 9.12633 36.4175 8.6846 36.577C8.28705 36.7366 8.4019 37.4988 8.16337 37.4988H7.92483C7.76581 37.4988 8.24288 36.4175 8.44607 36.0541C7.76581 35.8502 7.84532 37.4988 7.52728 37.4988H6.9707L7.12972 35.735C7.12972 35.735 7.60679 34.2903 7.60679 34.246C7.60679 34.2814 8.33122 33.0406 8.33122 33.0406C8.41073 32.9608 8.49024 32.9165 8.56975 32.8367H8.54325Z" fill="#24272A"/>
<path d="M19.5509 32.2783C20.3902 32.5619 20.8761 33.2444 20.6729 33.7584C20.4697 34.237 19.6304 34.4409 18.7911 34.1661C17.9518 33.8825 17.4306 33.2 17.6338 32.6771C17.8723 32.1985 18.7116 31.9946 19.5509 32.2783Z" fill="white"/>
<path d="M25.2309 33.1559C24.3121 33.2356 23.7114 33.8383 23.9499 34.441C24.1884 35.0437 25.1072 35.4869 26.026 35.3628C26.989 35.283 27.5456 34.7158 27.307 34.122C27.1127 33.4749 26.1497 33.0761 25.2309 33.1559Z" fill="white"/>
<path d="M19.665 38.4206C19.3028 38.3408 19.0643 38.261 18.5077 38.5004C18.384 39.1385 18.5872 39.5019 18.6667 40.0248C18.7463 39.2626 19.1438 38.7751 19.665 38.4206Z" fill="#24272A"/>
<path d="M14.1093 49.1362C14.3478 48.8172 14.7101 48.6576 14.9132 48.7729C15.0723 48.8526 15.0369 49.216 14.7896 49.5351C14.551 49.8542 14.1535 50.0137 13.9945 49.8985C13.7913 49.8187 13.8708 49.4553 14.1181 49.1362H14.1093Z" fill="#24272A"/>
<path d="M22.9076 50.8203C22.8281 50.457 22.4659 50.1733 22.1832 50.262C21.9446 50.2974 21.7856 50.6608 21.9005 51.0242C21.98 51.423 22.298 51.7067 22.5807 51.6624C22.8634 51.5826 23.0224 51.2192 22.8988 50.8203H22.9076Z" fill="#24272A"/>
<path d="M30.3904 43.9601L31.3534 46.4507L30.9558 46.8939L28.1111 48.7374L27.1923 50.0226L26.3884 50.4215C26.3884 50.4215 25.1515 50.5456 25.1515 50.5012C25.1515 50.5367 23.473 52.788 23.5083 52.788C23.473 52.788 22.4658 53.7895 22.4658 53.7895L24.3034 48.4893L24.7451 49.9783L24.9483 48.1259L25.4696 49.2958C25.4696 49.2958 27.1923 48.7729 27.2276 48.7729C27.1835 48.7729 28.8709 47.3725 28.8709 47.3282C28.8709 47.3725 28.8355 45.1655 28.8355 45.1212C28.8355 45.1655 29.4009 47.0091 29.4009 47.0091L29.5158 45.3251L30.1519 46.495C30.1519 46.495 29.8338 44.6072 29.878 44.6072C29.8338 44.6072 30.3992 45.2099 30.3992 45.2099V43.969L30.3904 43.9601Z" fill="#24272A"/>
<path d="M15.5492 43.5968C15.028 44.9617 14.5068 46.3266 13.9502 47.6561C14.4714 47.4523 15.2665 45.848 16.309 45.4846C17.3073 45.0858 14.9927 45.6442 15.2312 45.5644C15.4697 45.4403 16.1147 44.5185 16.1147 44.5185L15.3902 44.6781C15.4344 44.3147 15.4697 43.9513 15.5492 43.5879V43.5968Z" fill="#24272A"/>
<path d="M13.5873 48.2145C13.6668 49.2959 13.3841 49.5795 12.9424 51.0242C12.9866 50.0226 13.1014 49.0565 13.5873 48.2145Z" fill="#24272A"/>
<path d="M18.429 44.7225C19.5068 45.6886 19.4273 46.2913 21.7861 46.4863C24.7457 45.8392 25.6645 45.0415 27.4667 44.0754C26.7865 45.3163 25.7087 46.0431 24.4277 46.5217C23.1467 47.0003 22.1837 46.6458 21.9452 46.761C20.0634 47.5587 18.3053 46.4774 18.429 44.7136V44.7225Z" fill="#24272A"/>
<path d="M24.1895 47.3725C25.6737 47.1687 26.3097 45.7239 28.7127 44.164C26.0712 46.9737 27.308 47.018 26.2302 47.3725C23.6682 47.8511 24.3131 47.6561 24.1895 47.3725Z" fill="#24272A"/>
<path d="M22.704 41.1062C22.068 41.1062 21.5026 40.9023 20.8665 41.1416C20.6633 41.9482 20.7428 42.5863 21.0255 43.2688C21.0608 42.0634 21.264 41.3809 22.704 41.0973V41.1062Z" fill="#24272A"/>
<path d="M15.027 43.9158C13.7018 44.4387 13.0216 44.7223 11.8643 45.6796C12.0233 45.3162 11.8996 44.873 12.3413 44.5539C13.0216 44.031 14.3026 44.3501 15.027 43.9069V43.9158Z" fill="#24272A"/>
<path d="M16.9082 44.6781C18.1451 45.0769 17.9065 46.043 18.5073 46.1228C18.1451 45.9987 17.8712 45.9633 17.4648 45.7594C17.1026 45.396 17.4648 45.1567 16.8994 44.6781H16.9082Z" fill="#24272A"/>
<path d="M18.8262 42.6306C18.8616 43.8715 19.1001 44.9971 19.8687 45.4846C20.0277 45.5201 20.1867 45.5644 20.3458 45.4846C20.5843 45.4048 20.549 45.0858 20.9023 45.4403C21.2645 45.8391 21.6179 45.8037 21.6179 45.8037C21.6179 45.9278 22.1833 45.7239 22.5014 45.4048C22.8989 44.8819 23.6234 44.5185 23.4202 44.5983C22.1833 45.0414 20.9023 45.0414 20.5401 43.8715C20.4606 43.5879 20.5401 44.6337 20.5755 44.6337C19.8952 45.1921 19.3386 43.9513 18.8174 42.6218L18.8262 42.6306Z" fill="#24272A"/>
<path d="M24.0742 34.0422C25.152 35.1679 25.8765 34.9197 26.7599 34.9197C26.8394 35.0792 24.4364 35.6022 24.0742 34.0422Z" fill="#24272A"/>
<path d="M17.792 32.6772C18.7108 33.9624 19.4706 33.8383 20.354 33.9624C20.3982 34.1219 17.951 34.3258 17.792 32.6772Z" fill="#24272A"/>
<path d="M27.9082 33.8027C28.3058 33.9268 28.3058 34.0066 28.3058 34.2814C28.3499 34.1661 28.4294 33.9623 28.3853 33.8382C28.3058 33.8382 28.1026 33.8382 27.9082 33.7939V33.8027Z" fill="#24272A"/>
<path d="M20.6727 31.1085C20.9112 31.1528 21.0702 31.268 21.2734 31.3921L20.9907 31.6757C20.9907 31.6757 20.6285 31.5605 20.6727 31.5959V31.1173V31.1085Z" fill="white"/>
<path d="M26.4502 31.4451V31.8972L26.7771 32.1453L27.0686 31.711C26.8742 31.587 26.6976 31.4806 26.4502 31.4363V31.4451Z" fill="white"/>
<path d="M13.9844 23.4063C16.4227 22.4402 20.0272 22.6883 22.6687 22.6086C25.1512 20.4814 28.5083 19.5951 31.7064 18.7531C28.4642 20.0382 25.2661 21.4829 22.8277 23.5304C21.105 23.167 17.4652 22.972 13.9844 23.4063Z" fill="white"/>
<path d="M28.7562 24.8511L28.712 25.0904L28.2349 25.8172C28.0317 25.8172 27.7932 25.6576 27.5547 25.6576C27.7137 25.4538 27.9169 25.2942 28.0759 25.179C28.2349 25.0992 28.5177 24.8954 28.7562 24.8599V24.8511Z" fill="white"/>
<path d="M28.3936 25.6929C28.5526 25.7727 28.7116 25.8968 28.8353 26.012C29.0385 25.6486 29.4007 25.5688 29.7099 25.5334C29.3477 25.3738 28.8353 25.4891 28.3936 25.6929Z" fill="white"/>
<path d="M17.6699 51.1394C18.1116 51.1748 18.5092 51.3344 18.5887 51.6978C18.8272 51.618 18.9509 51.5826 18.9863 51.4142C18.5445 51.0153 18.1116 51.0508 17.6699 51.1305V51.1394Z" fill="white"/>
<path d="M0.865783 33.6168C0.865783 27.6075 3.20693 21.9439 7.46517 17.6806C11.7146 13.4174 17.351 11.0686 23.332 11.0686C35.7003 11.0686 45.754 21.1816 45.754 33.6168C45.754 46.052 35.6915 56.1561 23.332 56.1561C10.9725 56.1561 0.865783 46.0431 0.865783 33.6168ZM6.85559 17.069C2.4295 21.5007 0 27.377 0 33.6168C0 46.5306 10.4689 57.0336 23.3408 57.0336C36.2127 57.0336 46.6375 46.5306 46.6375 33.6168C46.6375 20.703 36.1862 10.2 23.3408 10.2C17.1301 10.2 11.2817 12.6374 6.86443 17.0602L6.85559 17.069Z" fill="#EE7F1A"/>
<path d="M60.1802 31.4009H61.5673C62.8571 31.4009 63.1752 30.8425 63.3253 30.3727C63.449 30.0093 63.4932 29.5219 63.6434 28.1481C63.7141 27.5099 63.7671 26.854 63.9614 26.145C64.1293 25.56 64.3501 25.0902 64.9332 24.7002C65.4898 24.3368 66.0552 24.2571 66.5676 24.2571C66.8857 24.2571 67.08 24.2837 67.3451 24.4078V26.5615H67.1507C66.7885 26.5615 66.2496 26.6058 66.1082 27.7138C65.958 28.7596 65.9845 29.0344 65.8432 29.8853C65.746 30.4702 65.5958 31.1261 65.1099 31.6402C64.9597 31.8086 64.5975 32.1543 63.9879 32.2961V32.367C64.7919 32.4645 65.6223 32.9254 66.0552 33.856C66.2054 34.1485 66.4704 34.831 66.5676 36.3909C66.6383 37.5165 66.6648 38.1547 66.8857 38.5447C67.1242 38.9613 67.4422 39.0056 67.7161 39.0056H67.8133V41.1505C67.5659 41.2746 67.3981 41.3012 67.08 41.3012C66.1524 41.3012 65.1364 41.1062 64.571 40.0071C64.4032 39.6437 64.1823 38.9347 63.9879 36.4175C63.9349 35.8059 63.8908 34.6094 63.3077 34.051C62.8218 33.5901 62.062 33.5901 61.5761 33.5901H60.1891V41.1593H57.415V24.3989H60.1891V31.3832L60.1802 31.4009Z" fill="white"/>
<path d="M75.7376 29.4687C77.2925 31.0109 77.3897 33.7674 77.3897 34.8221C77.3897 35.8768 77.2925 38.6599 75.7376 40.1932C74.9867 40.9289 73.8382 41.4164 72.4777 41.4164C71.3557 41.4164 70.0659 41.0264 69.2178 40.2198C67.8749 38.9524 67.5127 36.5327 67.5127 34.8221C67.5127 32.6683 68.0516 30.5677 69.2178 29.4509C69.951 28.7419 71.1437 28.2544 72.5572 28.2544C74.0414 28.2544 75.1104 28.866 75.7465 29.4775L75.7376 29.4687ZM71.0642 30.8425C70.4281 31.6224 70.2337 33.014 70.2337 34.893C70.2337 35.283 70.2337 37.747 71.0377 38.7751C71.3027 39.1208 71.7444 39.4576 72.4777 39.4576C73.211 39.4576 73.6262 39.1119 73.8647 38.8017C74.5008 37.9951 74.6687 36.0186 74.6687 34.8221C74.6687 33.5546 74.545 31.6933 73.8647 30.8425C73.476 30.355 73.0343 30.2043 72.4512 30.2043C71.8681 30.2043 71.4794 30.355 71.0642 30.8425Z" fill="white"/>
<path d="M80.8968 28.467V33.5989H84.3334V28.467H86.8601V41.1681H84.3334V35.6463H80.8968V41.1681H78.3701V28.467H80.8968Z" fill="white"/>
<path d="M97.3822 36.967C97.1436 38.4294 96.7991 39.5551 95.8714 40.3616C95.1205 41.0441 93.9985 41.4164 92.85 41.4164C91.2952 41.4164 90.1997 40.7605 89.5636 40.1489C87.885 38.4649 87.832 35.4071 87.832 34.7246C87.832 31.8174 88.8303 30.16 89.8021 29.3268C90.8534 28.4228 92.0461 28.2544 92.9649 28.2544C93.813 28.2544 94.7671 28.4051 95.5976 29.0344C96.9139 30.0359 97.2496 31.7908 97.3291 32.7747L94.9438 33.0937C94.8996 32.5088 94.723 31.3831 94.2901 30.8247C94.0692 30.5588 93.6805 30.2132 93.0002 30.2132C92.3641 30.2132 91.9047 30.5057 91.6132 30.7982C90.7651 31.649 90.5707 33.2178 90.5707 34.7512C90.5707 36.9227 90.9329 38.0217 91.4188 38.6865C91.7546 39.1739 92.1963 39.4664 92.8589 39.4664C93.4685 39.4664 94.025 39.2183 94.3431 38.8105C94.7318 38.3231 94.9262 37.3215 95.0057 36.6834L97.391 36.9759L97.3822 36.967Z" fill="white"/>
<path d="M99.0172 28.467L101.871 35.1854H101.915L104.177 28.467H106.465L103.249 37.8444C102.957 38.7041 102.445 39.9184 101.765 40.5831C101.279 41.0263 100.528 41.4429 99.3794 41.4429C98.8228 41.4429 98.2839 41.3188 98.1161 41.2922V39.1916C98.4341 39.3157 98.6991 39.3423 99.0702 39.3423C99.4059 39.3423 99.9713 39.2891 100.387 38.9789C100.581 38.8282 100.749 38.5889 100.846 38.2698L96.4375 28.4759H99.0172V28.467Z" fill="white"/>
<path d="M114.09 28.467V41.1681H111.554V30.5145H109.045C109.001 32.3492 109.001 33.1557 108.851 34.6182C108.656 36.8162 108.409 39.4309 107.049 40.5565C106.607 40.9199 105.909 41.239 104.999 41.239C104.734 41.239 104.124 41.1947 103.877 41.1681V39.2093C104.752 39.36 105.317 38.97 105.653 38.5269C106.086 37.9685 106.333 37.0112 106.501 35.0081C106.571 34.2991 106.695 32.7391 106.695 29.052V28.467H114.072H114.09Z" fill="white"/>
<path d="M118.065 28.467V33.4748H119.743C120.644 33.4748 122.155 33.5191 123.224 34.4498C124.125 35.2297 124.346 36.2135 124.346 37.1885C124.346 38.775 123.834 39.6791 123.348 40.1666C122.888 40.6275 122.005 41.1681 120.644 41.1681H115.529V28.467H118.056H118.065ZM118.065 39.2625H119.938C120.591 39.2625 121.033 39.0143 121.281 38.775C121.766 38.3141 121.766 37.6494 121.766 37.3569C121.766 36.7985 121.643 36.2579 121.183 35.8413C120.671 35.3804 120.088 35.3804 119.505 35.3804H118.065V39.2625Z" fill="white"/>
<path d="M130.626 28.467V30.5233H127.932V41.1681H125.396V30.5233H122.569V28.467H130.626Z" fill="white"/>
<path d="M135.054 28.467L138.535 41.1681H135.982L135.178 38.0926H131.741L130.937 41.1681H128.552L132.324 28.467H135.054ZM133.499 31.0817L132.236 36.1338H134.789L133.499 31.0817Z" fill="white"/>
<path d="M141.167 28.467V33.5989H144.595V28.467H147.131V41.1681H144.595V35.6463H141.167V41.1681H138.632V28.467H141.167Z" fill="white"/>
<path d="M155.726 28.467V30.5233H153.023V41.1681H150.487V30.5233H147.66V28.467H155.726Z" fill="white"/>
<path d="M166.654 24.4166V41.1682H163.925V26.6412H159.11V41.1682H156.38V24.4166H166.654Z" fill="white"/>
<path d="M177.537 28.467V41.1681H175.001V30.5145H172.492C172.448 32.3492 172.448 33.1557 172.298 34.6182C172.104 36.8162 171.856 39.4309 170.496 40.5565C170.054 40.9199 169.356 41.239 168.455 41.239C168.181 41.239 167.58 41.1947 167.333 41.1681V39.2093C168.208 39.36 168.773 38.97 169.109 38.5269C169.55 37.9685 169.789 37.0112 169.957 35.0081C170.036 34.2991 170.151 32.7391 170.151 29.052V28.467H177.528H177.537Z" fill="white"/>
<path d="M181.531 28.4671V33.5015H183.333C183.43 31.9858 184.066 30.3284 184.967 29.4509C185.674 28.7685 186.796 28.2544 188.209 28.2544C189.694 28.2544 190.692 28.866 191.302 29.4775C192.856 31.0375 192.954 33.7319 192.954 34.8309C192.954 35.93 192.856 38.6421 191.302 40.2021C190.718 40.7871 189.694 41.4252 188.165 41.4252C186.637 41.4252 185.533 40.7871 184.976 40.2287C183.978 39.2803 183.297 37.2949 183.297 35.5666H181.548V41.1859H179.013V28.4848H181.548L181.531 28.4671ZM186.734 30.8602C186.151 31.6402 185.93 32.9874 185.93 34.893C185.93 37.6317 186.566 38.5358 186.708 38.7485C186.973 39.1119 187.414 39.4576 188.121 39.4576C188.828 39.4576 189.217 39.1119 189.482 38.7751C189.552 38.7042 190.259 37.7204 190.259 34.8221C190.259 34.113 190.215 31.7642 189.482 30.8425C189.093 30.355 188.633 30.2043 188.095 30.2043C187.556 30.2043 187.14 30.3284 186.734 30.8602Z" fill="white"/>
<path d="M202.999 36.967C202.752 38.4294 202.416 39.5551 201.489 40.3616C200.729 41.0441 199.616 41.4164 198.467 41.4164C196.912 41.4164 195.817 40.7605 195.181 40.1489C193.502 38.4649 193.449 35.4071 193.449 34.7246C193.449 31.8174 194.448 30.16 195.419 29.3268C196.471 28.4228 197.663 28.2544 198.582 28.2544C199.43 28.2544 200.384 28.4051 201.215 29.0344C202.531 30.0359 202.867 31.7908 202.946 32.7747L200.561 33.0937C200.508 32.5088 200.34 31.3831 199.898 30.8247C199.678 30.5588 199.289 30.2132 198.609 30.2132C197.972 30.2132 197.513 30.5057 197.222 30.7982C196.373 31.649 196.179 33.2178 196.179 34.7512C196.179 36.9227 196.541 38.0217 197.027 38.6865C197.372 39.1739 197.805 39.4664 198.467 39.4664C199.077 39.4664 199.633 39.2183 199.951 38.8105C200.34 38.3231 200.535 37.3215 200.605 36.6834L202.991 36.9759L202.999 36.967Z" fill="white"/>
<defs>
<linearGradient id="paint0_linear_140_108" x1="23.315" y1="10.5898" x2="23.315" y2="56.5459" gradientUnits="userSpaceOnUse">
<stop stop-color="#B2ACC9"/>
<stop offset="0.26" stop-color="#AFA9C7"/>
<stop offset="0.45" stop-color="#A5A0C0"/>
<stop offset="0.62" stop-color="#9691B5"/>
<stop offset="0.77" stop-color="#7F7DA6"/>
<stop offset="0.91" stop-color="#636293"/>
<stop offset="1" stop-color="#4D4E84"/>
</linearGradient>
</defs>
</svg>
